<?xml version="1.0" encoding="utf-8" ?>
<svg xmlns="http://www.w3.org/2000/svg" xmlns:xlink="http://www.w3.org/1999/xlink" width="1672" height="595">
	<path fill="#DC4349" transform="scale(1 1)" d="M211.575 135.252C211.284 96.5125 214.773 57.6895 228.351 21.1108C230.541 15.2117 232.892 7.51286 237.461 3.02655C239.816 0.714882 242.943 -0.0959915 246.178 0.00899164C253.543 0.24897 265.237 4.30134 270.207 9.92149C271.2 11.0433 272.344 12.9061 272.3 14.4638C272.085 22.0237 265.003 33.004 262.066 40.0649C259.778 45.6292 257.763 51.3013 256.03 57.0633C251.477 71.792 247.668 86.7252 245.57 102.022C244.085 112.852 243.616 123.85 242.103 134.636C242.912 134.882 243.675 135.044 244.512 135.167C261.233 136.378 277.08 139.637 291.524 148.565C312.498 148.035 332.265 150.104 350.028 162.343C356.092 166.52 361.464 171.821 367.816 175.549C380.852 183.202 389.53 185.005 401.622 196.396C418.01 211.835 422.253 226.914 425.333 248.451C442.601 266.21 451.269 287.41 450.798 312.37C450.467 329.855 445.032 343.955 434.382 357.656C440.4 372.041 440.866 386.513 438.301 401.799C433.812 428.529 421.965 447.211 400.063 462.81C400.296 480.792 392.303 498.294 381.079 511.978C365.959 530.409 349.779 540.552 326.006 542.974C321.145 552.928 314.555 561.714 305.845 568.637C291.58 579.978 274.137 585.818 255.951 583.792C246.55 589.962 238.023 594.384 226.565 594.943C214.551 595.529 203.868 591.583 194.966 583.519C183.607 585.514 172.943 583.545 162.442 578.974C146.999 572.244 131.518 559.481 125.253 543.437C108.301 540.768 94.167 535.509 81.2708 523.878C62.4838 506.931 51.6774 487.812 50.4336 462.414C31.6403 449.888 20.501 433.429 14.6509 411.68C10.5235 396.336 7.85591 372.56 16.2266 358.138C14.086 354.711 11.4694 351.575 9.33165 348.106C3.29059 338.3 0.792959 326.752 0.282043 315.345C-0.866801 289.72 8.09783 266.966 25.3603 248.235C26.896 245.301 26.82 239.133 27.4899 235.735C28.6328 229.824 30.5285 224.083 33.1311 218.654C40.537 203.122 53.0031 190.569 68.4829 183.054C74.2327 180.193 80.8088 177.74 86.1331 174.173C89.5755 171.865 92.67 168.721 95.8988 166.105C113.891 151.528 137.559 146.603 160.242 148.924C173.569 141.468 196.119 133.284 211.575 135.252Z"/>
	<path fill="#EE6162" transform="scale(1 1)" d="M211.575 135.252C211.284 96.5125 214.773 57.6895 228.351 21.1108C230.541 15.2117 232.892 7.51286 237.461 3.02655C239.816 0.714882 242.943 -0.0959915 246.178 0.00899164C253.543 0.24897 265.237 4.30134 270.207 9.92149C271.2 11.0433 272.344 12.9061 272.3 14.4638C272.085 22.0237 265.003 33.004 262.066 40.0649C259.778 45.6292 257.763 51.3013 256.03 57.0633C251.477 71.792 247.668 86.7252 245.57 102.022C244.085 112.852 243.616 123.85 242.103 134.636C242.912 134.882 243.675 135.044 244.512 135.167C261.233 136.378 277.08 139.637 291.524 148.565C312.498 148.035 332.265 150.104 350.028 162.343C356.092 166.52 361.464 171.821 367.816 175.549C380.852 183.202 389.53 185.005 401.622 196.396C418.01 211.835 422.253 226.914 425.333 248.451C424.635 252.478 423.894 256.373 422.183 260.115C417.206 270.996 406.852 274.772 396.498 278.753C398.848 294.161 397.897 310.102 390.246 323.984C384.659 334.199 375.167 341.709 363.941 344.796C348.569 349.064 337.248 343.429 324.103 336.051C323.781 339.513 323.47 342.985 322.862 346.41C320.425 360.796 312.271 373.583 300.258 381.863C288.483 389.939 273.972 392.981 259.946 390.313C243.825 387.208 234.414 377.316 225.483 364.271C223.509 367.021 221.497 369.743 219.448 372.437C211.55 382.685 200.206 389.059 187.364 390.664C173.41 392.447 159.326 388.526 148.302 379.788C134.34 368.774 129.172 353.631 127.227 336.47C117.085 343.274 105.241 347.817 92.8832 346.008C81.3448 344.32 71.1942 337.834 64.2984 328.509C53.7219 314.207 52.1892 295.602 54.73 278.489C43.9665 274.753 33.844 270.606 29.3447 259.088C28.1278 255.974 27.5609 251.58 25.7772 248.845C25.6422 248.64 25.4992 248.439 25.3603 248.235C26.896 245.301 26.82 239.133 27.4899 235.735C28.6328 229.824 30.5285 224.083 33.1311 218.654C40.537 203.122 53.0031 190.569 68.4829 183.054C74.2327 180.193 80.8088 177.74 86.1331 174.173C89.5755 171.865 92.67 168.721 95.8988 166.105C113.891 151.528 137.559 146.603 160.242 148.924C173.569 141.468 196.119 133.284 211.575 135.252Z"/>
	<path fill="#FE9998" transform="scale(1 1)" d="M165.112 177.882C166.073 176.421 167.066 175.008 168.234 173.701C178.333 162.398 197.623 159.178 212.036 158.35C212.147 163.589 212.26 168.872 213.156 174.047C219.841 176.595 230.296 178.518 237.078 175.556C238.833 174.789 240.032 173.654 240.678 171.808C242.088 167.783 241.47 162.517 241.364 158.272C256.069 160.563 275.622 162.294 285.186 175.381C286.081 176.606 286.823 177.93 287.551 179.259C299.208 184.791 312.118 188.389 324.781 190.773C333.642 192.441 344.806 192.225 352.886 196.466C357.225 198.743 360.199 204.818 361.737 209.33C366.09 222.088 365.188 238.729 359.073 250.791C355.168 258.493 348.546 264.449 340.267 267.055C326.762 271.305 315.162 266.165 303.283 260.042C300.496 274.392 298.63 288.238 286.656 298.105C278.143 305.066 267.201 308.334 256.266 307.181C242.957 305.867 234.249 298.015 226.047 288.05C216.74 297.804 209.044 306.098 194.863 307.265C183.924 308.165 173.203 304.894 164.83 297.761C153.405 288.028 149.996 273.449 148.897 259.08L144.7 261.482C134.364 267.288 122.512 270.543 110.822 267.126C102.751 264.767 96.5647 259.339 92.5709 252.042C86.079 240.184 85.1571 223.949 88.9356 211.096C90.4436 205.967 93.0382 200.667 97.4024 197.398C106.421 190.64 127.924 191.995 139.518 189.308C148.724 187.175 156.927 182.419 165.112 177.882Z"/>
	<path fill="#FEE4CD" transform="scale(1 1)" d="M165.112 177.882C166.073 176.421 167.066 175.008 168.234 173.701C178.333 162.398 197.623 159.178 212.036 158.35C212.147 163.589 212.26 168.872 213.156 174.047C219.841 176.595 230.296 178.518 237.078 175.556C238.833 174.789 240.032 173.654 240.678 171.808C242.088 167.783 241.47 162.517 241.364 158.272C256.069 160.563 275.622 162.294 285.186 175.381C286.081 176.606 286.823 177.93 287.551 179.259C287.573 180.231 287.59 181.209 287.52 182.179C287.166 187.138 284.106 191.234 280.376 194.295C263.566 208.085 229.772 208.92 208.995 206.444C196.23 204.923 176.087 201.286 167.811 190.165C164.82 186.148 164.462 182.678 165.112 177.882Z"/>
	<path fill="#915925" transform="scale(1 1)" d="M211.575 135.252C211.284 96.5125 214.773 57.6895 228.351 21.1108C230.541 15.2117 232.892 7.51286 237.461 3.02655C239.816 0.714882 242.943 -0.0959915 246.178 0.00899164C253.543 0.24897 265.237 4.30134 270.207 9.92149C271.2 11.0433 272.344 12.9061 272.3 14.4638C272.085 22.0237 265.003 33.004 262.066 40.0649C259.778 45.6292 257.763 51.3013 256.03 57.0633C251.477 71.792 247.668 86.7252 245.57 102.022C244.085 112.852 243.616 123.85 242.103 134.636C242.912 134.882 243.675 135.044 244.512 135.167L242.802 135.388C240.862 138.085 241.426 154.024 241.364 158.272C241.47 162.517 242.088 167.783 240.678 171.808C240.032 173.654 238.833 174.789 237.078 175.556C230.296 178.518 219.841 176.595 213.156 174.047C212.26 168.872 212.147 163.589 212.036 158.35C212.035 150.656 211.756 142.945 211.575 135.252Z"/>
	<path fill="#C82F38" transform="scale(1 1)" d="M16.2266 358.138C21.9248 362.673 29.9576 364.957 37.0175 366.171C37.1785 386.035 42.2377 405.162 56.8155 419.424C67.1211 429.508 81.4108 435.654 95.9027 435.376C105.051 435.2 113.276 432.232 121.518 428.5C127.39 448.805 133.735 462.594 153.077 473.345C165.865 480.466 180.989 482.118 195.013 477.925C207.666 474.195 216.567 466.413 224.947 456.534C235.199 469.253 247.503 478.07 264.109 479.81C279.487 481.453 294.879 476.833 306.807 466.99C319.474 456.666 325.202 443.176 329.446 427.773C343.508 435.167 356.192 437.725 371.757 432.92C386.259 428.307 398.326 418.107 405.291 404.576C411.32 393.099 413.641 379.449 413.538 366.58C421.101 364.379 427.793 362.096 434.382 357.656C440.4 372.041 440.866 386.513 438.301 401.799C433.812 428.529 421.965 447.211 400.063 462.81C400.296 480.792 392.303 498.294 381.079 511.978C365.959 530.409 349.779 540.552 326.006 542.974C321.145 552.928 314.555 561.714 305.845 568.637C291.58 579.978 274.137 585.818 255.951 583.792C246.55 589.962 238.023 594.384 226.565 594.943C214.551 595.529 203.868 591.583 194.966 583.519C183.607 585.514 172.943 583.545 162.442 578.974C146.999 572.244 131.518 559.481 125.253 543.437C108.301 540.768 94.167 535.509 81.2708 523.878C62.4838 506.931 51.6774 487.812 50.4336 462.414C31.6403 449.888 20.501 433.429 14.6509 411.68C10.5235 396.336 7.85591 372.56 16.2266 358.138Z"/>
	<path fill="white" transform="scale(1 1)" d="M520.606 360.775Q520.606 338.456 529.659 320.057Q538.766 301.549 554.761 290.493Q571.02 279.305 591.883 279.305Q610.379 279.305 625.202 288.813Q639.893 298.115 647.996 312.016L644.162 314.251L639.725 314.251L639.725 223.074L679.87 223.074L679.87 399.673Q679.87 403.313 680.758 404.359Q681.501 405.236 684.163 405.441L688.26 405.756L688.26 438.54L684.604 439.194Q675.688 440.789 670.232 440.789Q659.948 440.789 652.608 434.617Q645.131 428.257 644.519 419.249L644.513 419.155L644.233 408.105L648.669 407.993L652.464 410.293Q643.314 425.394 627.837 433.802Q612.416 442.106 595.696 442.106Q579.317 442.106 565.527 435.656Q551.81 429.24 541.638 417.888Q531.579 406.581 526.088 391.94Q520.606 377.246 520.606 360.775ZM529.481 360.775Q529.481 375.644 534.398 388.824Q539.308 401.917 548.247 411.965Q557.211 421.968 569.287 427.617Q581.29 433.231 595.696 433.231Q610.178 433.231 623.6 426.004Q636.968 418.742 644.874 405.693L652.722 392.741L653.382 418.836L648.946 418.948L653.374 418.647Q653.732 423.922 658.32 427.824Q663.183 431.914 670.232 431.914Q674.9 431.914 683.041 430.458L683.822 434.826L679.385 434.826L679.385 409.865L683.822 409.865L683.482 414.289Q677.129 413.801 673.99 410.101Q670.995 406.571 670.995 399.673L670.995 227.512L675.433 227.512L675.433 231.949L644.162 231.949L644.162 227.512L648.6 227.512L648.6 330.676L640.328 316.485Q633.316 304.455 620.411 296.284Q607.777 288.18 591.883 288.18Q573.779 288.18 559.807 297.794Q545.711 307.538 537.622 323.976Q529.481 340.522 529.481 360.775ZM639.794 381.576L639.794 342.401L644.232 342.401L640.048 343.881Q637.186 335.793 630.871 329.353Q624.442 322.667 616.467 318.712Q608.793 314.875 601.243 314.875Q592.346 314.875 585.198 318.602Q577.97 322.402 572.718 328.842Q567.465 335.299 564.601 343.635Q561.722 352.017 561.722 361.191Q561.722 370.629 564.893 378.874Q568.06 387.11 573.809 393.427Q579.494 399.611 587.063 403.052Q594.64 406.468 603.531 406.468Q608.953 406.468 614.623 404.495Q620.527 402.464 625.862 398.844Q631.096 395.292 634.821 390.45Q638.518 385.662 639.95 380.408L644.232 381.576L639.794 381.576ZM648.669 381.576L648.669 382.17L648.513 382.744Q646.617 389.694 641.855 395.861Q637.26 401.835 630.845 406.187Q624.532 410.471 617.539 412.878Q610.452 415.343 603.531 415.343Q592.732 415.343 583.39 411.131Q574.18 406.945 567.245 399.401Q560.375 391.851 556.609 382.06Q552.847 372.277 552.847 361.191Q552.847 350.535 556.208 340.752Q559.584 330.922 565.841 323.233Q572.237 315.39 581.095 310.732Q590.172 306 601.243 306Q610.888 306 620.41 310.761Q629.769 315.403 637.208 323.139Q644.898 330.982 648.415 340.921L648.669 341.639L648.669 381.576ZM525.043 360.775Q525.043 339.489 533.641 322.016Q542.238 304.544 557.284 294.143Q572.4 283.743 591.883 283.743Q609.078 283.743 622.807 292.549Q636.605 301.285 644.162 314.251L644.162 227.512L675.433 227.512L675.433 399.673Q675.433 404.942 677.374 407.23Q679.315 409.518 683.822 409.865L683.822 434.826Q675.294 436.351 670.232 436.351Q661.565 436.351 655.464 431.221Q649.432 426.09 648.946 418.948L648.669 407.993Q640.141 422.068 625.719 429.903Q611.297 437.669 595.696 437.669Q580.304 437.669 567.407 431.637Q554.511 425.604 544.942 414.927Q535.443 404.249 530.243 390.382Q525.043 376.445 525.043 360.775ZM644.232 381.576L644.232 342.401Q641.042 333.388 634.039 326.246Q627.106 319.035 618.439 314.736Q609.841 310.437 601.243 310.437Q591.259 310.437 583.146 314.667Q575.104 318.896 569.279 326.038Q563.525 333.11 560.404 342.193Q557.284 351.276 557.284 361.191Q557.284 371.453 560.751 380.467Q564.218 389.48 570.527 396.414Q576.837 403.278 585.227 407.092Q593.686 410.905 603.531 410.905Q609.702 410.905 616.081 408.686Q622.529 406.468 628.354 402.515Q634.178 398.563 638.338 393.155Q642.567 387.678 644.232 381.576ZM699.849 391.422Q699.849 375.567 708.874 363.765Q717.797 352.195 733.188 345.919Q748.267 339.697 767.868 339.697Q777.901 339.697 788.554 341.27Q799.441 342.867 807.808 346.096L806.21 350.236L801.773 350.236L801.773 340.806Q801.773 327.065 793.822 319.644Q785.79 312.032 769.878 312.032Q758.443 312.032 748.06 316.095Q737.395 320.228 725.38 328.148L721.2 330.904L706.769 301.947L709.971 299.767Q725.054 289.496 740.562 284.446Q756.202 279.305 773.276 279.305Q804.964 279.305 823.365 296.291Q841.918 313.417 841.918 344.204L841.918 399.673Q841.918 403.313 842.806 404.359Q843.55 405.236 846.211 405.441L850.308 405.756L850.308 438.546L846.646 439.195Q842.185 439.987 838.625 440.35L838.174 435.935L838.725 440.339Q835.122 440.789 832.558 440.789Q820.702 440.789 814.349 434.61Q808.216 428.644 807.023 420.718L807 420.568L806.294 411.889L810.717 411.529L814.227 414.244Q803.842 427.671 787.715 434.921Q771.805 442.106 755.665 442.106Q739.81 442.106 727.129 435.503Q714.339 428.768 707.118 417.29Q699.849 405.66 699.849 391.422ZM708.724 391.422Q708.724 403.115 714.63 412.564Q720.582 422.025 731.228 427.631Q741.982 433.231 755.665 433.231Q769.894 433.231 784.076 426.827Q798.179 420.486 807.207 408.814L814.212 399.758L815.834 419.698L811.411 420.057L815.799 419.397Q816.547 424.367 820.537 428.247Q824.306 431.914 832.558 431.914Q834.57 431.914 837.624 431.532L837.674 431.526L837.724 431.521Q840.958 431.191 845.095 430.457L845.871 434.826L841.433 434.826L841.433 409.865L845.871 409.865L845.53 414.289Q839.178 413.801 836.039 410.101Q833.043 406.571 833.043 399.673L833.043 344.204Q833.044 317.303 817.345 302.812Q801.494 288.18 773.276 288.18Q757.623 288.18 743.31 292.885Q729.004 297.543 714.966 307.102L712.468 303.434L716.44 301.455L726.91 322.464L722.938 324.443L720.496 320.738Q733.303 312.295 744.826 307.83Q756.769 303.157 769.878 303.157Q789.328 303.157 799.878 313.156Q810.648 323.208 810.648 340.806L810.648 356.705L804.613 354.376Q797.171 351.504 787.258 350.05Q777.249 348.572 767.868 348.572Q750.027 348.572 736.539 354.137Q723.364 359.51 715.924 369.156Q708.724 378.571 708.724 391.422ZM795.669 397.495Q798.582 394.34 800.245 391.073Q801.773 388.174 801.773 386.43L801.773 369.581L806.21 369.581L804.613 373.721Q797.085 370.815 788.677 369.226Q780.262 367.57 772.375 367.57Q756.632 367.57 747.057 373.788Q738.4 379.409 738.4 388.856Q738.4 394.108 741.265 399.037Q744.16 403.861 749.849 407.028Q755.628 410.212 764.262 410.212Q773.542 410.212 782.063 406.551Q790.578 402.892 795.702 397.46L795.669 397.495ZM802.158 403.549Q795.772 410.32 785.567 414.705Q775.368 419.087 764.262 419.087Q753.344 419.087 745.533 414.782Q737.771 410.461 733.593 403.498Q729.525 396.501 729.525 388.856Q729.525 374.59 742.223 366.345Q754.004 358.695 772.375 358.695Q781.127 358.695 790.325 360.506Q799.527 362.245 807.808 365.441L810.648 366.537L810.648 386.43Q810.648 390.371 808.154 395.099Q805.935 399.459 802.191 403.515L802.158 403.549ZM704.287 391.422Q704.287 377.069 712.399 366.461Q720.581 355.852 734.864 350.028Q749.147 344.135 767.868 344.135Q777.575 344.135 787.906 345.66Q798.306 347.185 806.21 350.236L806.21 340.806Q806.21 325.137 796.85 316.4Q787.559 307.595 769.878 307.595Q757.606 307.595 746.443 311.963Q735.349 316.262 722.938 324.443L712.468 303.434Q727.029 293.519 741.936 288.666Q756.913 283.743 773.276 283.743Q803.229 283.743 820.355 299.552Q837.481 315.36 837.481 344.204L837.481 399.673Q837.481 404.942 839.422 407.23Q841.364 409.518 845.871 409.865L845.871 434.826Q841.572 435.589 838.174 435.935Q834.846 436.351 832.558 436.351Q822.504 436.351 817.443 431.429Q812.381 426.506 811.411 420.057L810.717 411.529Q801.01 424.079 785.895 430.874Q770.849 437.669 755.665 437.669Q740.896 437.669 729.178 431.567Q717.46 425.396 710.874 414.927Q704.287 404.388 704.287 391.422ZM798.93 400.505Q802.258 396.899 804.2 393.086Q806.21 389.272 806.21 386.43L806.21 369.581Q798.306 366.53 789.501 364.866Q780.695 363.133 772.375 363.133Q755.318 363.133 744.64 370.066Q733.962 377 733.962 388.856Q733.962 395.305 737.429 401.267Q740.965 407.161 747.691 410.905Q754.486 414.649 764.262 414.649Q774.455 414.649 783.815 410.628Q793.175 406.606 798.93 400.505ZM958.692 431.318Q954.564 433.168 948.353 435.568Q942.004 438.049 934.235 439.719Q926.375 441.482 917.841 441.482Q907.256 441.482 898.193 437.751Q888.652 433.742 883.054 425.106Q877.487 416.437 877.487 403.417L877.487 310.437L881.925 310.437L881.925 314.875L857.657 314.875L857.657 281.871L881.925 281.871L881.925 286.308L877.487 286.308L877.487 233.058L917.563 233.058L917.563 286.308L913.126 286.308L913.126 281.871L949.943 281.871L949.943 314.875L913.126 314.875L913.126 310.437L917.563 310.437L917.563 393.294L913.126 393.294L917.555 393.019Q917.921 398.937 920.879 401.386Q924.062 403.972 928.796 403.972Q934.63 403.972 939.825 401.978Q945.62 399.78 948.015 398.519L952.903 395.947L962.16 429.763L958.692 431.318ZM955.062 423.219L956.877 427.268L952.597 428.44L945.802 403.618L950.082 402.446L952.149 406.373Q949.274 407.886 943.005 410.264Q936.274 412.847 928.796 412.847Q920.911 412.847 915.218 408.221Q909.301 403.321 908.697 393.568L908.688 393.431L908.688 306L945.506 306L945.506 310.437L941.068 310.437L941.068 286.308L945.506 286.308L945.506 290.746L908.688 290.746L908.688 237.496L913.126 237.496L913.126 241.933L881.925 241.933L881.925 237.496L886.362 237.496L886.362 290.746L862.094 290.746L862.094 286.308L866.532 286.308L866.532 310.437L862.094 310.437L862.094 306L886.362 306L886.362 403.417Q886.362 413.832 890.502 420.279Q894.611 426.619 901.572 429.544Q909.011 432.607 917.841 432.607Q925.392 432.607 932.37 431.042Q939.439 429.523 945.154 427.289Q951.147 424.974 955.062 423.219ZM956.877 427.268Q952.855 429.071 946.754 431.429Q940.721 433.786 933.302 435.381Q925.884 437.045 917.841 437.045Q908.134 437.045 899.883 433.647Q891.632 430.18 886.778 422.692Q881.925 415.135 881.925 403.417L881.925 310.437L862.094 310.437L862.094 286.308L881.925 286.308L881.925 237.496L913.126 237.496L913.126 286.308L945.506 286.308L945.506 310.437L913.126 310.437L913.126 393.294Q913.611 401.129 918.049 404.804Q922.486 408.409 928.796 408.409Q935.452 408.409 941.415 406.121Q947.447 403.833 950.082 402.446L956.877 427.268ZM962.994 391.422Q962.994 375.567 972.019 363.765Q980.942 352.195 996.333 345.919Q1011.41 339.697 1031.01 339.697Q1041.05 339.697 1051.7 341.27Q1062.59 342.867 1070.95 346.096L1069.36 350.236L1064.92 350.236L1064.92 340.806Q1064.92 327.065 1056.97 319.644Q1048.94 312.032 1033.02 312.032Q1021.59 312.032 1011.21 316.095Q1000.54 320.228 988.525 328.148L984.345 330.904L969.914 301.947L973.116 299.767Q988.199 289.496 1003.71 284.446Q1019.35 279.305 1036.42 279.305Q1068.11 279.305 1086.51 296.291Q1105.06 313.417 1105.06 344.204L1105.06 399.673Q1105.06 403.313 1105.95 404.359Q1106.7 405.236 1109.36 405.441L1113.45 405.756L1113.45 438.546L1109.79 439.195Q1105.33 439.987 1101.77 440.35L1101.32 435.935L1101.87 440.339Q1098.27 440.789 1095.7 440.789Q1083.85 440.789 1077.49 434.61Q1071.36 428.644 1070.17 420.718L1070.15 420.568L1069.44 411.889L1073.86 411.529L1077.37 414.244Q1066.99 427.671 1050.86 434.921Q1034.95 442.106 1018.81 442.106Q1002.96 442.106 990.274 435.503Q977.484 428.768 970.263 417.29Q962.994 405.66 962.994 391.422ZM971.869 391.422Q971.869 403.115 977.775 412.564Q983.727 422.025 994.373 427.631Q1005.13 433.231 1018.81 433.231Q1033.04 433.231 1047.22 426.827Q1061.32 420.486 1070.35 408.814L1077.36 399.758L1078.98 419.698L1074.56 420.057L1078.94 419.397Q1079.69 424.367 1083.68 428.247Q1087.45 431.914 1095.7 431.914Q1097.72 431.914 1100.77 431.532L1100.82 431.526L1100.87 431.521Q1104.1 431.191 1108.24 430.457L1109.02 434.826L1104.58 434.826L1104.58 409.865L1109.02 409.865L1108.68 414.289Q1102.32 413.801 1099.18 410.101Q1096.19 406.571 1096.19 399.673L1096.19 344.204Q1096.19 317.303 1080.49 302.812Q1064.64 288.18 1036.42 288.18Q1020.77 288.18 1006.46 292.885Q992.149 297.543 978.111 307.102L975.613 303.434L979.585 301.455L990.055 322.464L986.083 324.443L983.641 320.738Q996.448 312.295 1007.97 307.83Q1019.91 303.157 1033.02 303.157Q1052.47 303.157 1063.02 313.156Q1073.79 323.208 1073.79 340.806L1073.79 356.705L1067.76 354.376Q1060.32 351.504 1050.4 350.05Q1040.39 348.572 1031.01 348.572Q1013.17 348.572 999.684 354.137Q986.509 359.51 979.069 369.156Q971.869 378.571 971.869 391.422ZM1058.81 397.495Q1061.73 394.34 1063.39 391.073Q1064.92 388.174 1064.92 386.43L1064.92 369.581L1069.36 369.581L1067.76 373.721Q1060.23 370.815 1051.82 369.226Q1043.41 367.57 1035.52 367.57Q1019.78 367.57 1010.2 373.788Q1001.55 379.409 1001.55 388.856Q1001.55 394.108 1004.41 399.037Q1007.3 403.861 1012.99 407.028Q1018.77 410.212 1027.41 410.212Q1036.69 410.212 1045.21 406.551Q1053.72 402.892 1058.85 397.46L1058.81 397.495ZM1065.3 403.549Q1058.92 410.32 1048.71 414.705Q1038.51 419.087 1027.41 419.087Q1016.49 419.087 1008.68 414.782Q1000.92 410.461 996.738 403.498Q992.67 396.501 992.67 388.856Q992.67 374.59 1005.37 366.345Q1017.15 358.695 1035.52 358.695Q1044.27 358.695 1053.47 360.506Q1062.67 362.245 1070.95 365.441L1073.79 366.537L1073.79 386.43Q1073.79 390.371 1071.3 395.099Q1069.08 399.459 1065.34 403.515L1065.3 403.549ZM967.432 391.422Q967.432 377.069 975.544 366.461Q983.726 355.852 998.009 350.028Q1012.29 344.135 1031.01 344.135Q1040.72 344.135 1051.05 345.66Q1061.45 347.185 1069.36 350.236L1069.36 340.806Q1069.36 325.137 1059.99 316.4Q1050.7 307.595 1033.02 307.595Q1020.75 307.595 1009.59 311.963Q998.494 316.262 986.083 324.443L975.613 303.434Q990.174 293.519 1005.08 288.666Q1020.06 283.743 1036.42 283.743Q1066.37 283.743 1083.5 299.552Q1100.63 315.36 1100.63 344.204L1100.63 399.673Q1100.63 404.942 1102.57 407.23Q1104.51 409.518 1109.02 409.865L1109.02 434.826Q1104.72 435.589 1101.32 435.935Q1097.99 436.351 1095.7 436.351Q1085.65 436.351 1080.59 431.429Q1075.53 426.506 1074.56 420.057L1073.86 411.529Q1064.16 424.079 1049.04 430.874Q1033.99 437.669 1018.81 437.669Q1004.04 437.669 992.323 431.567Q980.606 425.396 974.019 414.927Q967.432 404.388 967.432 391.422ZM1062.07 400.505Q1065.4 396.899 1067.34 393.086Q1069.36 389.272 1069.36 386.43L1069.36 369.581Q1061.45 366.53 1052.65 364.866Q1043.84 363.133 1035.52 363.133Q1018.46 363.133 1007.79 370.066Q997.107 377 997.107 388.856Q997.107 395.305 1000.57 401.267Q1004.11 407.161 1010.84 410.905Q1017.63 414.649 1027.41 414.649Q1037.6 414.649 1046.96 410.628Q1056.32 406.606 1062.07 400.505ZM1141.69 434.826L1141.69 314.181L1146.13 314.181L1146.13 318.619L1121.93 318.619L1121.93 285.615L1146.13 285.615L1146.13 290.053L1141.69 290.053L1141.69 284.159Q1141.69 264.931 1147.89 250.702Q1154.23 236.136 1165.97 228.202Q1177.78 220.231 1193.63 220.231Q1203.15 220.231 1212.58 222.737Q1222.04 225.23 1230.28 229.716L1233.42 231.43L1223.89 263.78L1218.93 260.669Q1215.4 258.452 1210.2 257.03Q1205.02 255.593 1200.21 255.593Q1191.53 255.593 1186.89 262.005Q1181.84 269.079 1181.84 283.05L1181.84 290.053L1177.4 290.053L1177.4 285.615L1219.83 285.615L1219.83 318.619L1177.4 318.619L1177.4 314.181L1181.84 314.181L1181.84 439.264L1141.69 439.264L1141.69 434.826ZM1150.57 434.826L1146.13 434.826L1146.13 430.388L1177.4 430.388L1177.4 434.826L1172.96 434.826L1172.96 309.744L1215.4 309.744L1215.4 314.181L1210.96 314.181L1210.96 290.053L1215.4 290.053L1215.4 294.49L1172.96 294.49L1172.96 283.05Q1172.96 266.235 1179.7 256.807Q1186.99 246.718 1200.21 246.718Q1206.22 246.718 1212.55 248.47Q1219 250.237 1223.65 253.151L1221.29 256.91L1217.03 255.656L1223.9 232.359L1228.16 233.613L1226.03 237.51Q1218.74 233.538 1210.31 231.315Q1201.99 229.106 1193.63 229.106Q1180.49 229.106 1170.94 235.557Q1161.33 242.046 1156.02 254.243Q1150.57 266.778 1150.57 284.159L1150.57 294.49L1126.37 294.49L1126.37 290.053L1130.81 290.053L1130.81 314.181L1126.37 314.181L1126.37 309.744L1150.57 309.744L1150.57 434.826ZM1146.13 434.826L1146.13 314.181L1126.37 314.181L1126.37 290.053L1146.13 290.053L1146.13 284.159Q1146.13 265.854 1151.96 252.473Q1157.78 239.091 1168.46 231.88Q1179.13 224.669 1193.63 224.669Q1202.57 224.669 1211.45 227.026Q1220.39 229.384 1228.16 233.613L1221.29 256.91Q1217.2 254.345 1211.38 252.75Q1205.62 251.155 1200.21 251.155Q1189.26 251.155 1183.29 259.406Q1177.4 267.657 1177.4 283.05L1177.4 290.053L1215.4 290.053L1215.4 314.181L1177.4 314.181L1177.4 434.826L1146.13 434.826ZM1322.17 317.856Q1305.22 318.051 1292.21 325.457Q1279.52 332.682 1274.07 345.708L1269.98 343.996L1274.41 343.996L1274.41 439.264L1234.34 439.264L1234.34 281.871L1272.13 281.871L1272.13 319.382L1267.69 319.382L1263.73 317.383Q1271.9 301.179 1285.24 291.397Q1298.76 281.411 1313.85 280.424L1314 280.415L1318.86 280.415Q1321.17 280.415 1322.99 280.778L1326.55 281.492L1326.55 317.806L1322.17 317.856ZM1322.07 308.982L1322.12 313.419L1317.68 313.419L1317.68 285.13L1322.12 285.13L1321.25 289.481Q1320.29 289.29 1318.86 289.29L1314.14 289.29L1314.14 284.852L1314.43 289.28Q1301.94 290.097 1290.49 298.554Q1278.87 307.077 1271.65 321.381L1263.25 319.382L1263.25 286.308L1267.69 286.308L1267.69 290.746L1238.78 290.746L1238.78 286.308L1243.21 286.308L1243.21 434.826L1238.78 434.826L1238.78 430.388L1269.98 430.388L1269.98 434.826L1265.54 434.826L1265.54 343.105L1265.88 342.284Q1272.5 326.466 1287.82 317.744Q1302.82 309.203 1322.07 308.982ZM1322.12 313.419Q1304.02 313.627 1290.02 321.6Q1276.01 329.574 1269.98 343.996L1269.98 434.826L1238.78 434.826L1238.78 286.308L1267.69 286.308L1267.69 319.382Q1275.39 304.128 1287.86 294.975Q1300.35 285.754 1314.14 284.852Q1317.06 284.852 1318.86 284.852Q1320.73 284.852 1322.12 285.13L1322.12 313.419ZM1339.1 377.277L1339.1 281.871L1379.24 281.871L1379.24 370.829Q1379.24 389.321 1385.57 398.293Q1391.44 406.468 1403.03 406.468Q1411.04 406.468 1418.58 403.166Q1426.16 399.844 1432.48 393.269Q1438.91 386.654 1442.81 377.181L1446.92 378.872L1442.48 378.872L1442.48 281.871L1482.62 281.871L1482.62 399.673Q1482.62 403.313 1483.51 404.359Q1484.25 405.234 1486.98 405.44L1491.08 405.751L1491.08 438.629L1487.32 439.211Q1482.21 440.003 1478.9 440.224Q1475.68 440.512 1472.85 440.512Q1462.79 440.512 1455.83 435.061Q1448.65 429.287 1447.7 420.026L1447.69 419.904L1446.99 405.082L1451.42 404.873L1455.2 407.199Q1444.79 424.109 1427.7 433.134Q1410.79 442.106 1390.54 442.106Q1365.29 442.106 1351.97 425.081Q1339.1 408.471 1339.1 377.277ZM1347.97 377.277Q1347.97 405.435 1358.96 419.61Q1369.62 433.231 1390.54 433.231Q1408.58 433.231 1423.56 425.286Q1438.5 417.393 1447.64 402.546L1455.18 390.31L1456.55 419.363L1452.11 419.572L1456.53 419.118Q1457.1 424.695 1461.3 428.074Q1465.85 431.637 1472.85 431.637Q1475.29 431.637 1478.31 431.369Q1481.23 431.174 1485.97 430.441L1486.64 434.826L1482.21 434.826L1482.21 409.865L1486.64 409.865L1486.31 414.29Q1479.88 413.803 1476.74 410.101Q1473.75 406.571 1473.75 399.673L1473.75 286.308L1478.19 286.308L1478.19 290.746L1446.92 290.746L1446.92 286.308L1451.35 286.308L1451.35 379.751L1451.02 380.563Q1446.46 391.613 1438.88 399.42Q1431.34 407.267 1422.14 411.295Q1412.9 415.343 1403.03 415.343Q1386.88 415.343 1378.32 403.409Q1370.37 392.136 1370.37 370.829L1370.37 286.308L1374.81 286.308L1374.81 290.746L1343.54 290.746L1343.54 286.308L1347.97 286.308L1347.97 377.277ZM1343.54 377.277L1343.54 286.308L1374.81 286.308L1374.81 370.829Q1374.81 390.728 1381.95 400.851Q1389.16 410.905 1403.03 410.905Q1411.97 410.905 1420.36 407.23Q1428.75 403.555 1435.68 396.345Q1442.69 389.134 1446.92 378.872L1446.92 286.308L1478.19 286.308L1478.19 399.673Q1478.19 404.942 1480.13 407.23Q1482.07 409.518 1486.64 409.865L1486.64 434.826Q1481.72 435.589 1478.6 435.797Q1475.48 436.074 1472.85 436.074Q1464.32 436.074 1458.56 431.567Q1452.88 426.991 1452.11 419.572L1451.42 404.873Q1441.65 420.751 1425.63 429.21Q1409.68 437.669 1390.54 437.669Q1367.46 437.669 1355.46 422.346Q1343.54 406.953 1343.54 377.277ZM1513.51 434.826L1513.51 281.871L1553.58 281.871L1553.58 439.264L1513.51 439.264L1513.51 434.826ZM1522.38 434.826L1517.94 434.826L1517.94 430.388L1549.14 430.388L1549.14 434.826L1544.71 434.826L1544.71 286.308L1549.14 286.308L1549.14 290.746L1517.94 290.746L1517.94 286.308L1522.38 286.308L1522.38 434.826ZM1513.51 261.833L1513.51 223.074L1553.58 223.074L1553.58 266.27L1513.51 266.27L1513.51 261.833ZM1522.38 261.833L1517.94 261.833L1517.94 257.395L1549.14 257.395L1549.14 261.833L1544.71 261.833L1544.71 227.512L1549.14 227.512L1549.14 231.949L1517.94 231.949L1517.94 227.512L1522.38 227.512L1522.38 261.833ZM1517.94 434.826L1517.94 286.308L1549.14 286.308L1549.14 434.826L1517.94 434.826ZM1517.94 261.833L1517.94 227.512L1549.14 227.512L1549.14 261.833L1517.94 261.833ZM1671.2 431.318Q1667.08 433.168 1660.86 435.568Q1654.52 438.049 1646.75 439.719Q1638.89 441.482 1630.35 441.482Q1619.77 441.482 1610.7 437.751Q1601.16 433.742 1595.57 425.106Q1590 416.437 1590 403.417L1590 310.437L1594.44 310.437L1594.44 314.875L1570.17 314.875L1570.17 281.871L1594.44 281.871L1594.44 286.308L1590 286.308L1590 233.058L1630.08 233.058L1630.08 286.308L1625.64 286.308L1625.64 281.871L1662.45 281.871L1662.45 314.875L1625.64 314.875L1625.64 310.437L1630.08 310.437L1630.08 393.294L1625.64 393.294L1630.07 393.019Q1630.43 398.937 1633.39 401.386Q1636.57 403.972 1641.31 403.972Q1647.14 403.972 1652.34 401.978Q1658.13 399.78 1660.53 398.519L1665.42 395.947L1674.67 429.763L1671.2 431.318ZM1667.57 423.219L1669.39 427.268L1665.11 428.44L1658.31 403.618L1662.59 402.446L1664.66 406.373Q1661.79 407.886 1655.52 410.264Q1648.79 412.847 1641.31 412.847Q1633.42 412.847 1627.73 408.221Q1621.81 403.321 1621.21 393.568L1621.2 393.431L1621.2 306L1658.02 306L1658.02 310.437L1653.58 310.437L1653.58 286.308L1658.02 286.308L1658.02 290.746L1621.2 290.746L1621.2 237.496L1625.64 237.496L1625.64 241.933L1594.44 241.933L1594.44 237.496L1598.87 237.496L1598.87 290.746L1574.61 290.746L1574.61 286.308L1579.04 286.308L1579.04 310.437L1574.61 310.437L1574.61 306L1598.87 306L1598.87 403.417Q1598.87 413.832 1603.01 420.279Q1607.12 426.619 1614.08 429.544Q1621.52 432.607 1630.35 432.607Q1637.9 432.607 1644.88 431.042Q1651.95 429.523 1657.67 427.289Q1663.66 424.974 1667.57 423.219ZM1669.39 427.268Q1665.37 429.071 1659.27 431.429Q1653.23 433.786 1645.81 435.381Q1638.4 437.045 1630.35 437.045Q1620.65 437.045 1612.39 433.647Q1604.14 430.18 1599.29 422.692Q1594.44 415.135 1594.44 403.417L1594.44 310.437L1574.61 310.437L1574.61 286.308L1594.44 286.308L1594.44 237.496L1625.64 237.496L1625.64 286.308L1658.02 286.308L1658.02 310.437L1625.64 310.437L1625.64 393.294Q1626.12 401.129 1630.56 404.804Q1635 408.409 1641.31 408.409Q1647.96 408.409 1653.93 406.121Q1659.96 403.833 1662.59 402.446L1669.39 427.268Z"/>
</svg>
