<?xml version="1.0" encoding="utf-8" ?>
<svg xmlns="http://www.w3.org/2000/svg" xmlns:xlink="http://www.w3.org/1999/xlink" width="1672" height="595">
	<path fill="#DC4349" transform="scale(1 1)" d="M211.575 135.252C211.284 96.5125 214.773 57.6895 228.351 21.1108C230.541 15.2117 232.892 7.51286 237.461 3.02655C239.816 0.714882 242.943 -0.0959915 246.178 0.00899164C253.543 0.24897 265.237 4.30134 270.207 9.92149C271.2 11.0433 272.344 12.9061 272.3 14.4638C272.085 22.0237 265.003 33.004 262.066 40.0649C259.778 45.6292 257.763 51.3013 256.03 57.0633C251.477 71.792 247.668 86.7252 245.57 102.022C244.085 112.852 243.616 123.85 242.103 134.636C242.912 134.882 243.675 135.044 244.512 135.167C261.233 136.378 277.08 139.637 291.524 148.565C312.498 148.035 332.265 150.104 350.028 162.343C356.092 166.52 361.464 171.821 367.816 175.549C380.852 183.202 389.53 185.005 401.622 196.396C418.01 211.835 422.253 226.914 425.333 248.451C442.601 266.21 451.269 287.41 450.798 312.37C450.467 329.855 445.032 343.955 434.382 357.656C440.4 372.041 440.866 386.513 438.301 401.799C433.812 428.529 421.965 447.211 400.063 462.81C400.296 480.792 392.303 498.294 381.079 511.978C365.959 530.409 349.779 540.552 326.006 542.974C321.145 552.928 314.555 561.714 305.845 568.637C291.58 579.978 274.137 585.818 255.951 583.792C246.55 589.962 238.023 594.384 226.565 594.943C214.551 595.529 203.868 591.583 194.966 583.519C183.607 585.514 172.943 583.545 162.442 578.974C146.999 572.244 131.518 559.481 125.253 543.437C108.301 540.768 94.167 535.509 81.2708 523.878C62.4838 506.931 51.6774 487.812 50.4336 462.414C31.6403 449.888 20.501 433.429 14.6509 411.68C10.5235 396.336 7.85591 372.56 16.2266 358.138C14.086 354.711 11.4694 351.575 9.33165 348.106C3.29059 338.3 0.792959 326.752 0.282043 315.345C-0.866801 289.72 8.09783 266.966 25.3603 248.235C26.896 245.301 26.82 239.133 27.4899 235.735C28.6328 229.824 30.5285 224.083 33.1311 218.654C40.537 203.122 53.0031 190.569 68.4829 183.054C74.2327 180.193 80.8088 177.74 86.1331 174.173C89.5755 171.865 92.67 168.721 95.8988 166.105C113.891 151.528 137.559 146.603 160.242 148.924C173.569 141.468 196.119 133.284 211.575 135.252Z"/>
	<path fill="#EE6162" transform="scale(1 1)" d="M211.575 135.252C211.284 96.5125 214.773 57.6895 228.351 21.1108C230.541 15.2117 232.892 7.51286 237.461 3.02655C239.816 0.714882 242.943 -0.0959915 246.178 0.00899164C253.543 0.24897 265.237 4.30134 270.207 9.92149C271.2 11.0433 272.344 12.9061 272.3 14.4638C272.085 22.0237 265.003 33.004 262.066 40.0649C259.778 45.6292 257.763 51.3013 256.03 57.0633C251.477 71.792 247.668 86.7252 245.57 102.022C244.085 112.852 243.616 123.85 242.103 134.636C242.912 134.882 243.675 135.044 244.512 135.167C261.233 136.378 277.08 139.637 291.524 148.565C312.498 148.035 332.265 150.104 350.028 162.343C356.092 166.52 361.464 171.821 367.816 175.549C380.852 183.202 389.53 185.005 401.622 196.396C418.01 211.835 422.253 226.914 425.333 248.451C424.635 252.478 423.894 256.373 422.183 260.115C417.206 270.996 406.852 274.772 396.498 278.753C398.848 294.161 397.897 310.102 390.246 323.984C384.659 334.199 375.167 341.709 363.941 344.796C348.569 349.064 337.248 343.429 324.103 336.051C323.781 339.513 323.47 342.985 322.862 346.41C320.425 360.796 312.271 373.583 300.258 381.863C288.483 389.939 273.972 392.981 259.946 390.313C243.825 387.208 234.414 377.316 225.483 364.271C223.509 367.021 221.497 369.743 219.448 372.437C211.55 382.685 200.206 389.059 187.364 390.664C173.41 392.447 159.326 388.526 148.302 379.788C134.34 368.774 129.172 353.631 127.227 336.47C117.085 343.274 105.241 347.817 92.8832 346.008C81.3448 344.32 71.1942 337.834 64.2984 328.509C53.7219 314.207 52.1892 295.602 54.73 278.489C43.9665 274.753 33.844 270.606 29.3447 259.088C28.1278 255.974 27.5609 251.58 25.7772 248.845C25.6422 248.64 25.4992 248.439 25.3603 248.235C26.896 245.301 26.82 239.133 27.4899 235.735C28.6328 229.824 30.5285 224.083 33.1311 218.654C40.537 203.122 53.0031 190.569 68.4829 183.054C74.2327 180.193 80.8088 177.74 86.1331 174.173C89.5755 171.865 92.67 168.721 95.8988 166.105C113.891 151.528 137.559 146.603 160.242 148.924C173.569 141.468 196.119 133.284 211.575 135.252Z"/>
	<path fill="#FE9998" transform="scale(1 1)" d="M165.112 177.882C166.073 176.421 167.066 175.008 168.234 173.701C178.333 162.398 197.623 159.178 212.036 158.35C212.147 163.589 212.26 168.872 213.156 174.047C219.841 176.595 230.296 178.518 237.078 175.556C238.833 174.789 240.032 173.654 240.678 171.808C242.088 167.783 241.47 162.517 241.364 158.272C256.069 160.563 275.622 162.294 285.186 175.381C286.081 176.606 286.823 177.93 287.551 179.259C299.208 184.791 312.118 188.389 324.781 190.773C333.642 192.441 344.806 192.225 352.886 196.466C357.225 198.743 360.199 204.818 361.737 209.33C366.09 222.088 365.188 238.729 359.073 250.791C355.168 258.493 348.546 264.449 340.267 267.055C326.762 271.305 315.162 266.165 303.283 260.042C300.496 274.392 298.63 288.238 286.656 298.105C278.143 305.066 267.201 308.334 256.266 307.181C242.957 305.867 234.249 298.015 226.047 288.05C216.74 297.804 209.044 306.098 194.863 307.265C183.924 308.165 173.203 304.894 164.83 297.761C153.405 288.028 149.996 273.449 148.897 259.08L144.7 261.482C134.364 267.288 122.512 270.543 110.822 267.126C102.751 264.767 96.5647 259.339 92.5709 252.042C86.079 240.184 85.1571 223.949 88.9356 211.096C90.4436 205.967 93.0382 200.667 97.4024 197.398C106.421 190.64 127.924 191.995 139.518 189.308C148.724 187.175 156.927 182.419 165.112 177.882Z"/>
	<path fill="#FEE4CD" transform="scale(1 1)" d="M165.112 177.882C166.073 176.421 167.066 175.008 168.234 173.701C178.333 162.398 197.623 159.178 212.036 158.35C212.147 163.589 212.26 168.872 213.156 174.047C219.841 176.595 230.296 178.518 237.078 175.556C238.833 174.789 240.032 173.654 240.678 171.808C242.088 167.783 241.47 162.517 241.364 158.272C256.069 160.563 275.622 162.294 285.186 175.381C286.081 176.606 286.823 177.93 287.551 179.259C287.573 180.231 287.59 181.209 287.52 182.179C287.166 187.138 284.106 191.234 280.376 194.295C263.566 208.085 229.772 208.92 208.995 206.444C196.23 204.923 176.087 201.286 167.811 190.165C164.82 186.148 164.462 182.678 165.112 177.882Z"/>
	<path fill="#915925" transform="scale(1 1)" d="M211.575 135.252C211.284 96.5125 214.773 57.6895 228.351 21.1108C230.541 15.2117 232.892 7.51286 237.461 3.02655C239.816 0.714882 242.943 -0.0959915 246.178 0.00899164C253.543 0.24897 265.237 4.30134 270.207 9.92149C271.2 11.0433 272.344 12.9061 272.3 14.4638C272.085 22.0237 265.003 33.004 262.066 40.0649C259.778 45.6292 257.763 51.3013 256.03 57.0633C251.477 71.792 247.668 86.7252 245.57 102.022C244.085 112.852 243.616 123.85 242.103 134.636C242.912 134.882 243.675 135.044 244.512 135.167L242.802 135.388C240.862 138.085 241.426 154.024 241.364 158.272C241.47 162.517 242.088 167.783 240.678 171.808C240.032 173.654 238.833 174.789 237.078 175.556C230.296 178.518 219.841 176.595 213.156 174.047C212.26 168.872 212.147 163.589 212.036 158.35C212.035 150.656 211.756 142.945 211.575 135.252Z"/>
	<path fill="#C82F38" transform="scale(1 1)" d="M16.2266 358.138C21.9248 362.673 29.9576 364.957 37.0175 366.171C37.1785 386.035 42.2377 405.162 56.8155 419.424C67.1211 429.508 81.4108 435.654 95.9027 435.376C105.051 435.2 113.276 432.232 121.518 428.5C127.39 448.805 133.735 462.594 153.077 473.345C165.865 480.466 180.989 482.118 195.013 477.925C207.666 474.195 216.567 466.413 224.947 456.534C235.199 469.253 247.503 478.07 264.109 479.81C279.487 481.453 294.879 476.833 306.807 466.99C319.474 456.666 325.202 443.176 329.446 427.773C343.508 435.167 356.192 437.725 371.757 432.92C386.259 428.307 398.326 418.107 405.291 404.576C411.32 393.099 413.641 379.449 413.538 366.58C421.101 364.379 427.793 362.096 434.382 357.656C440.4 372.041 440.866 386.513 438.301 401.799C433.812 428.529 421.965 447.211 400.063 462.81C400.296 480.792 392.303 498.294 381.079 511.978C365.959 530.409 349.779 540.552 326.006 542.974C321.145 552.928 314.555 561.714 305.845 568.637C291.58 579.978 274.137 585.818 255.951 583.792C246.55 589.962 238.023 594.384 226.565 594.943C214.551 595.529 203.868 591.583 194.966 583.519C183.607 585.514 172.943 583.545 162.442 578.974C146.999 572.244 131.518 559.481 125.253 543.437C108.301 540.768 94.167 535.509 81.2708 523.878C62.4838 506.931 51.6774 487.812 50.4336 462.414C31.6403 449.888 20.501 433.429 14.6509 411.68C10.5235 396.336 7.85591 372.56 16.2266 358.138Z"/>
	<path transform="scale(1 1)" d="M520.606 359.775Q520.606 337.456 529.659 319.057Q538.766 300.549 554.761 289.493Q571.02 278.305 591.883 278.305Q610.379 278.305 625.202 287.813Q639.893 297.115 647.996 311.016L644.162 313.251L639.725 313.251L639.725 222.074L679.87 222.074L679.87 398.673Q679.87 402.313 680.758 403.359Q681.501 404.236 684.163 404.441L688.26 404.756L688.26 437.54L684.604 438.194Q675.688 439.789 670.232 439.789Q659.948 439.789 652.608 433.617Q645.131 427.257 644.519 418.249L644.513 418.155L644.233 407.105L648.669 406.993L652.464 409.293Q643.314 424.394 627.837 432.802Q612.416 441.106 595.696 441.106Q579.317 441.106 565.527 434.656Q551.81 428.24 541.638 416.888Q531.579 405.581 526.088 390.94Q520.606 376.246 520.606 359.775ZM529.481 359.775Q529.481 374.644 534.398 387.824Q539.308 400.917 548.247 410.965Q557.211 420.968 569.287 426.617Q581.29 432.231 595.696 432.231Q610.178 432.231 623.6 425.004Q636.968 417.742 644.874 404.693L652.722 391.741L653.382 417.836L648.946 417.948L653.374 417.647Q653.732 422.922 658.32 426.824Q663.183 430.914 670.232 430.914Q674.9 430.914 683.041 429.458L683.822 433.826L679.385 433.826L679.385 408.865L683.822 408.865L683.482 413.289Q677.129 412.801 673.99 409.101Q670.995 405.571 670.995 398.673L670.995 226.512L675.433 226.512L675.433 230.949L644.162 230.949L644.162 226.512L648.6 226.512L648.6 329.676L640.328 315.485Q633.316 303.455 620.411 295.284Q607.777 287.18 591.883 287.18Q573.779 287.18 559.807 296.794Q545.711 306.538 537.622 322.976Q529.481 339.522 529.481 359.775ZM639.794 380.576L639.794 341.401L644.232 341.401L640.048 342.881Q637.186 334.793 630.871 328.353Q624.442 321.667 616.467 317.712Q608.793 313.875 601.243 313.875Q592.346 313.875 585.198 317.602Q577.97 321.402 572.718 327.842Q567.465 334.299 564.601 342.635Q561.722 351.017 561.722 360.191Q561.722 369.629 564.893 377.874Q568.06 386.11 573.809 392.427Q579.494 398.611 587.063 402.052Q594.64 405.468 603.531 405.468Q608.953 405.468 614.623 403.495Q620.527 401.464 625.862 397.844Q631.096 394.292 634.821 389.45Q638.518 384.662 639.95 379.408L644.232 380.576L639.794 380.576ZM648.669 380.576L648.669 381.17L648.513 381.744Q646.617 388.694 641.855 394.861Q637.26 400.835 630.845 405.187Q624.532 409.471 617.539 411.878Q610.452 414.343 603.531 414.343Q592.732 414.343 583.39 410.131Q574.18 405.945 567.245 398.401Q560.375 390.851 556.609 381.06Q552.847 371.277 552.847 360.191Q552.847 349.535 556.208 339.752Q559.584 329.922 565.841 322.233Q572.237 314.39 581.095 309.732Q590.172 305 601.243 305Q610.888 305 620.41 309.761Q629.769 314.403 637.208 322.139Q644.898 329.982 648.415 339.921L648.669 340.639L648.669 380.576ZM525.043 359.775Q525.043 338.489 533.641 321.016Q542.238 303.544 557.284 293.143Q572.4 282.743 591.883 282.743Q609.078 282.743 622.807 291.549Q636.605 300.285 644.162 313.251L644.162 226.512L675.433 226.512L675.433 398.673Q675.433 403.942 677.374 406.23Q679.315 408.518 683.822 408.865L683.822 433.826Q675.294 435.351 670.232 435.351Q661.565 435.351 655.464 430.221Q649.432 425.09 648.946 417.948L648.669 406.993Q640.141 421.068 625.719 428.903Q611.297 436.669 595.696 436.669Q580.304 436.669 567.407 430.637Q554.511 424.604 544.942 413.927Q535.443 403.249 530.243 389.382Q525.043 375.445 525.043 359.775ZM644.232 380.576L644.232 341.401Q641.042 332.388 634.039 325.246Q627.106 318.035 618.439 313.736Q609.841 309.437 601.243 309.437Q591.259 309.437 583.146 313.667Q575.104 317.896 569.279 325.038Q563.525 332.11 560.404 341.193Q557.284 350.276 557.284 360.191Q557.284 370.453 560.751 379.467Q564.218 388.48 570.527 395.414Q576.837 402.278 585.227 406.092Q593.686 409.905 603.531 409.905Q609.702 409.905 616.081 407.686Q622.529 405.468 628.354 401.515Q634.178 397.563 638.338 392.155Q642.567 386.678 644.232 380.576ZM699.849 390.422Q699.849 374.567 708.874 362.765Q717.797 351.195 733.188 344.919Q748.267 338.697 767.868 338.697Q777.901 338.697 788.554 340.27Q799.441 341.867 807.808 345.096L806.21 349.236L801.773 349.236L801.773 339.806Q801.773 326.065 793.822 318.644Q785.79 311.032 769.878 311.032Q758.443 311.032 748.06 315.095Q737.395 319.228 725.38 327.148L721.2 329.904L706.769 300.947L709.971 298.767Q725.054 288.496 740.562 283.446Q756.202 278.305 773.276 278.305Q804.964 278.305 823.365 295.291Q841.918 312.417 841.918 343.204L841.918 398.673Q841.918 402.313 842.806 403.359Q843.55 404.236 846.211 404.441L850.308 404.756L850.308 437.546L846.646 438.195Q842.185 438.987 838.625 439.35L838.174 434.935L838.725 439.339Q835.122 439.789 832.558 439.789Q820.702 439.789 814.349 433.61Q808.216 427.644 807.023 419.718L807 419.568L806.294 410.889L810.717 410.529L814.227 413.244Q803.842 426.671 787.715 433.921Q771.805 441.106 755.665 441.106Q739.81 441.106 727.129 434.503Q714.339 427.768 707.118 416.29Q699.849 404.66 699.849 390.422ZM708.724 390.422Q708.724 402.115 714.63 411.564Q720.582 421.025 731.228 426.631Q741.982 432.231 755.665 432.231Q769.894 432.231 784.076 425.827Q798.179 419.486 807.207 407.814L814.212 398.758L815.834 418.698L811.411 419.057L815.799 418.397Q816.547 423.367 820.537 427.247Q824.306 430.914 832.558 430.914Q834.57 430.914 837.624 430.532L837.674 430.526L837.724 430.521Q840.958 430.191 845.095 429.457L845.871 433.826L841.433 433.826L841.433 408.865L845.871 408.865L845.53 413.289Q839.178 412.801 836.039 409.101Q833.043 405.571 833.043 398.673L833.043 343.204Q833.044 316.303 817.345 301.812Q801.494 287.18 773.276 287.18Q757.623 287.18 743.31 291.885Q729.004 296.543 714.966 306.102L712.468 302.434L716.44 300.455L726.91 321.464L722.938 323.443L720.496 319.738Q733.303 311.295 744.826 306.83Q756.769 302.157 769.878 302.157Q789.328 302.157 799.878 312.156Q810.648 322.208 810.648 339.806L810.648 355.705L804.613 353.376Q797.171 350.504 787.258 349.05Q777.249 347.572 767.868 347.572Q750.027 347.572 736.539 353.137Q723.364 358.51 715.924 368.156Q708.724 377.571 708.724 390.422ZM795.669 396.495Q798.582 393.34 800.245 390.073Q801.773 387.174 801.773 385.43L801.773 368.581L806.21 368.581L804.613 372.721Q797.085 369.815 788.677 368.226Q780.262 366.57 772.375 366.57Q756.632 366.57 747.057 372.788Q738.4 378.409 738.4 387.856Q738.4 393.108 741.265 398.037Q744.16 402.861 749.849 406.028Q755.628 409.212 764.262 409.212Q773.542 409.212 782.063 405.551Q790.578 401.892 795.702 396.46L795.669 396.495ZM802.158 402.549Q795.772 409.32 785.567 413.705Q775.368 418.087 764.262 418.087Q753.344 418.087 745.533 413.782Q737.771 409.461 733.593 402.498Q729.525 395.501 729.525 387.856Q729.525 373.59 742.223 365.345Q754.004 357.695 772.375 357.695Q781.127 357.695 790.325 359.506Q799.527 361.245 807.808 364.441L810.648 365.537L810.648 385.43Q810.648 389.371 808.154 394.099Q805.935 398.459 802.191 402.515L802.158 402.549ZM704.287 390.422Q704.287 376.069 712.399 365.461Q720.581 354.852 734.864 349.028Q749.147 343.135 767.868 343.135Q777.575 343.135 787.906 344.66Q798.306 346.185 806.21 349.236L806.21 339.806Q806.21 324.137 796.85 315.4Q787.559 306.595 769.878 306.595Q757.606 306.595 746.443 310.963Q735.349 315.262 722.938 323.443L712.468 302.434Q727.029 292.519 741.936 287.666Q756.913 282.743 773.276 282.743Q803.229 282.743 820.355 298.552Q837.481 314.36 837.481 343.204L837.481 398.673Q837.481 403.942 839.422 406.23Q841.364 408.518 845.871 408.865L845.871 433.826Q841.572 434.589 838.174 434.935Q834.846 435.351 832.558 435.351Q822.504 435.351 817.443 430.429Q812.381 425.506 811.411 419.057L810.717 410.529Q801.01 423.079 785.895 429.874Q770.849 436.669 755.665 436.669Q740.896 436.669 729.178 430.567Q717.46 424.396 710.874 413.927Q704.287 403.388 704.287 390.422ZM798.93 399.505Q802.258 395.899 804.2 392.086Q806.21 388.272 806.21 385.43L806.21 368.581Q798.306 365.53 789.501 363.866Q780.695 362.133 772.375 362.133Q755.318 362.133 744.64 369.066Q733.962 376 733.962 387.856Q733.962 394.305 737.429 400.267Q740.965 406.161 747.691 409.905Q754.486 413.649 764.262 413.649Q774.455 413.649 783.815 409.628Q793.175 405.606 798.93 399.505ZM958.692 430.318Q954.564 432.168 948.353 434.568Q942.004 437.049 934.235 438.719Q926.375 440.482 917.841 440.482Q907.256 440.482 898.193 436.751Q888.652 432.742 883.054 424.106Q877.487 415.437 877.487 402.417L877.487 309.437L881.925 309.437L881.925 313.875L857.657 313.875L857.657 280.871L881.925 280.871L881.925 285.308L877.487 285.308L877.487 232.058L917.563 232.058L917.563 285.308L913.126 285.308L913.126 280.871L949.943 280.871L949.943 313.875L913.126 313.875L913.126 309.437L917.563 309.437L917.563 392.294L913.126 392.294L917.555 392.019Q917.921 397.937 920.879 400.386Q924.062 402.972 928.796 402.972Q934.63 402.972 939.825 400.978Q945.62 398.78 948.015 397.519L952.903 394.947L962.16 428.763L958.692 430.318ZM955.062 422.219L956.877 426.268L952.597 427.44L945.802 402.618L950.082 401.446L952.149 405.373Q949.274 406.886 943.005 409.264Q936.274 411.847 928.796 411.847Q920.911 411.847 915.218 407.221Q909.301 402.321 908.697 392.568L908.688 392.431L908.688 305L945.506 305L945.506 309.437L941.068 309.437L941.068 285.308L945.506 285.308L945.506 289.746L908.688 289.746L908.688 236.496L913.126 236.496L913.126 240.933L881.925 240.933L881.925 236.496L886.362 236.496L886.362 289.746L862.094 289.746L862.094 285.308L866.532 285.308L866.532 309.437L862.094 309.437L862.094 305L886.362 305L886.362 402.417Q886.362 412.832 890.502 419.279Q894.611 425.619 901.572 428.544Q909.011 431.607 917.841 431.607Q925.392 431.607 932.37 430.042Q939.439 428.523 945.154 426.289Q951.147 423.974 955.062 422.219ZM956.877 426.268Q952.855 428.071 946.754 430.429Q940.721 432.786 933.302 434.381Q925.884 436.045 917.841 436.045Q908.134 436.045 899.883 432.647Q891.632 429.18 886.778 421.692Q881.925 414.135 881.925 402.417L881.925 309.437L862.094 309.437L862.094 285.308L881.925 285.308L881.925 236.496L913.126 236.496L913.126 285.308L945.506 285.308L945.506 309.437L913.126 309.437L913.126 392.294Q913.611 400.129 918.049 403.804Q922.486 407.409 928.796 407.409Q935.452 407.409 941.415 405.121Q947.447 402.833 950.082 401.446L956.877 426.268ZM962.994 390.422Q962.994 374.567 972.019 362.765Q980.942 351.195 996.333 344.919Q1011.41 338.697 1031.01 338.697Q1041.05 338.697 1051.7 340.27Q1062.59 341.867 1070.95 345.096L1069.36 349.236L1064.92 349.236L1064.92 339.806Q1064.92 326.065 1056.97 318.644Q1048.94 311.032 1033.02 311.032Q1021.59 311.032 1011.21 315.095Q1000.54 319.228 988.525 327.148L984.345 329.904L969.914 300.947L973.116 298.767Q988.199 288.496 1003.71 283.446Q1019.35 278.305 1036.42 278.305Q1068.11 278.305 1086.51 295.291Q1105.06 312.417 1105.06 343.204L1105.06 398.673Q1105.06 402.313 1105.95 403.359Q1106.7 404.236 1109.36 404.441L1113.45 404.756L1113.45 437.546L1109.79 438.195Q1105.33 438.987 1101.77 439.35L1101.32 434.935L1101.87 439.339Q1098.27 439.789 1095.7 439.789Q1083.85 439.789 1077.49 433.61Q1071.36 427.644 1070.17 419.718L1070.15 419.568L1069.44 410.889L1073.86 410.529L1077.37 413.244Q1066.99 426.671 1050.86 433.921Q1034.95 441.106 1018.81 441.106Q1002.96 441.106 990.274 434.503Q977.484 427.768 970.263 416.29Q962.994 404.66 962.994 390.422ZM971.869 390.422Q971.869 402.115 977.775 411.564Q983.727 421.025 994.373 426.631Q1005.13 432.231 1018.81 432.231Q1033.04 432.231 1047.22 425.827Q1061.32 419.486 1070.35 407.814L1077.36 398.758L1078.98 418.698L1074.56 419.057L1078.94 418.397Q1079.69 423.367 1083.68 427.247Q1087.45 430.914 1095.7 430.914Q1097.72 430.914 1100.77 430.532L1100.82 430.526L1100.87 430.521Q1104.1 430.191 1108.24 429.457L1109.02 433.826L1104.58 433.826L1104.58 408.865L1109.02 408.865L1108.68 413.289Q1102.32 412.801 1099.18 409.101Q1096.19 405.571 1096.19 398.673L1096.19 343.204Q1096.19 316.303 1080.49 301.812Q1064.64 287.18 1036.42 287.18Q1020.77 287.18 1006.46 291.885Q992.149 296.543 978.111 306.102L975.613 302.434L979.585 300.455L990.055 321.464L986.083 323.443L983.641 319.738Q996.448 311.295 1007.97 306.83Q1019.91 302.157 1033.02 302.157Q1052.47 302.157 1063.02 312.156Q1073.79 322.208 1073.79 339.806L1073.79 355.705L1067.76 353.376Q1060.32 350.504 1050.4 349.05Q1040.39 347.572 1031.01 347.572Q1013.17 347.572 999.684 353.137Q986.509 358.51 979.069 368.156Q971.869 377.571 971.869 390.422ZM1058.81 396.495Q1061.73 393.34 1063.39 390.073Q1064.92 387.174 1064.92 385.43L1064.92 368.581L1069.36 368.581L1067.76 372.721Q1060.23 369.815 1051.82 368.226Q1043.41 366.57 1035.52 366.57Q1019.78 366.57 1010.2 372.788Q1001.55 378.409 1001.55 387.856Q1001.55 393.108 1004.41 398.037Q1007.3 402.861 1012.99 406.028Q1018.77 409.212 1027.41 409.212Q1036.69 409.212 1045.21 405.551Q1053.72 401.892 1058.85 396.46L1058.81 396.495ZM1065.3 402.549Q1058.92 409.32 1048.71 413.705Q1038.51 418.087 1027.41 418.087Q1016.49 418.087 1008.68 413.782Q1000.92 409.461 996.738 402.498Q992.67 395.501 992.67 387.856Q992.67 373.59 1005.37 365.345Q1017.15 357.695 1035.52 357.695Q1044.27 357.695 1053.47 359.506Q1062.67 361.245 1070.95 364.441L1073.79 365.537L1073.79 385.43Q1073.79 389.371 1071.3 394.099Q1069.08 398.459 1065.34 402.515L1065.3 402.549ZM967.432 390.422Q967.432 376.069 975.544 365.461Q983.726 354.852 998.009 349.028Q1012.29 343.135 1031.01 343.135Q1040.72 343.135 1051.05 344.66Q1061.45 346.185 1069.36 349.236L1069.36 339.806Q1069.36 324.137 1059.99 315.4Q1050.7 306.595 1033.02 306.595Q1020.75 306.595 1009.59 310.963Q998.494 315.262 986.083 323.443L975.613 302.434Q990.174 292.519 1005.08 287.666Q1020.06 282.743 1036.42 282.743Q1066.37 282.743 1083.5 298.552Q1100.63 314.36 1100.63 343.204L1100.63 398.673Q1100.63 403.942 1102.57 406.23Q1104.51 408.518 1109.02 408.865L1109.02 433.826Q1104.72 434.589 1101.32 434.935Q1097.99 435.351 1095.7 435.351Q1085.65 435.351 1080.59 430.429Q1075.53 425.506 1074.56 419.057L1073.86 410.529Q1064.16 423.079 1049.04 429.874Q1033.99 436.669 1018.81 436.669Q1004.04 436.669 992.323 430.567Q980.606 424.396 974.019 413.927Q967.432 403.388 967.432 390.422ZM1062.07 399.505Q1065.4 395.899 1067.34 392.086Q1069.36 388.272 1069.36 385.43L1069.36 368.581Q1061.45 365.53 1052.65 363.866Q1043.84 362.133 1035.52 362.133Q1018.46 362.133 1007.79 369.066Q997.107 376 997.107 387.856Q997.107 394.305 1000.57 400.267Q1004.11 406.161 1010.84 409.905Q1017.63 413.649 1027.41 413.649Q1037.6 413.649 1046.96 409.628Q1056.32 405.606 1062.07 399.505ZM1141.69 433.826L1141.69 313.181L1146.13 313.181L1146.13 317.619L1121.93 317.619L1121.93 284.615L1146.13 284.615L1146.13 289.053L1141.69 289.053L1141.69 283.159Q1141.69 263.931 1147.89 249.702Q1154.23 235.136 1165.97 227.202Q1177.78 219.231 1193.63 219.231Q1203.15 219.231 1212.58 221.737Q1222.04 224.23 1230.28 228.716L1233.42 230.43L1223.89 262.78L1218.93 259.669Q1215.4 257.452 1210.2 256.03Q1205.02 254.593 1200.21 254.593Q1191.53 254.593 1186.89 261.005Q1181.84 268.079 1181.84 282.05L1181.84 289.053L1177.4 289.053L1177.4 284.615L1219.83 284.615L1219.83 317.619L1177.4 317.619L1177.4 313.181L1181.84 313.181L1181.84 438.264L1141.69 438.264L1141.69 433.826ZM1150.57 433.826L1146.13 433.826L1146.13 429.388L1177.4 429.388L1177.4 433.826L1172.96 433.826L1172.96 308.744L1215.4 308.744L1215.4 313.181L1210.96 313.181L1210.96 289.053L1215.4 289.053L1215.4 293.49L1172.96 293.49L1172.96 282.05Q1172.96 265.235 1179.7 255.807Q1186.99 245.718 1200.21 245.718Q1206.22 245.718 1212.55 247.47Q1219 249.237 1223.65 252.151L1221.29 255.91L1217.03 254.656L1223.9 231.359L1228.16 232.613L1226.03 236.51Q1218.74 232.538 1210.31 230.315Q1201.99 228.106 1193.63 228.106Q1180.49 228.106 1170.94 234.557Q1161.33 241.046 1156.02 253.243Q1150.57 265.778 1150.57 283.159L1150.57 293.49L1126.37 293.49L1126.37 289.053L1130.81 289.053L1130.81 313.181L1126.37 313.181L1126.37 308.744L1150.57 308.744L1150.57 433.826ZM1146.13 433.826L1146.13 313.181L1126.37 313.181L1126.37 289.053L1146.13 289.053L1146.13 283.159Q1146.13 264.854 1151.96 251.473Q1157.78 238.091 1168.46 230.88Q1179.13 223.669 1193.63 223.669Q1202.57 223.669 1211.45 226.026Q1220.39 228.384 1228.16 232.613L1221.29 255.91Q1217.2 253.345 1211.38 251.75Q1205.62 250.155 1200.21 250.155Q1189.26 250.155 1183.29 258.406Q1177.4 266.657 1177.4 282.05L1177.4 289.053L1215.4 289.053L1215.4 313.181L1177.4 313.181L1177.4 433.826L1146.13 433.826ZM1322.17 316.856Q1305.22 317.051 1292.21 324.457Q1279.52 331.682 1274.07 344.708L1269.98 342.996L1274.41 342.996L1274.41 438.264L1234.34 438.264L1234.34 280.871L1272.13 280.871L1272.13 318.382L1267.69 318.382L1263.73 316.383Q1271.9 300.179 1285.24 290.397Q1298.76 280.411 1313.85 279.424L1314 279.415L1318.86 279.415Q1321.17 279.415 1322.99 279.778L1326.55 280.492L1326.55 316.806L1322.17 316.856ZM1322.07 307.982L1322.12 312.419L1317.68 312.419L1317.68 284.13L1322.12 284.13L1321.25 288.481Q1320.29 288.29 1318.86 288.29L1314.14 288.29L1314.14 283.852L1314.43 288.28Q1301.94 289.097 1290.49 297.554Q1278.87 306.077 1271.65 320.381L1263.25 318.382L1263.25 285.308L1267.69 285.308L1267.69 289.746L1238.78 289.746L1238.78 285.308L1243.21 285.308L1243.21 433.826L1238.78 433.826L1238.78 429.388L1269.98 429.388L1269.98 433.826L1265.54 433.826L1265.54 342.105L1265.88 341.284Q1272.5 325.466 1287.82 316.744Q1302.82 308.203 1322.07 307.982ZM1322.12 312.419Q1304.02 312.627 1290.02 320.6Q1276.01 328.574 1269.98 342.996L1269.98 433.826L1238.78 433.826L1238.78 285.308L1267.69 285.308L1267.69 318.382Q1275.39 303.128 1287.86 293.975Q1300.35 284.754 1314.14 283.852Q1317.06 283.852 1318.86 283.852Q1320.73 283.852 1322.12 284.13L1322.12 312.419ZM1339.1 376.277L1339.1 280.871L1379.24 280.871L1379.24 369.829Q1379.24 388.321 1385.57 397.293Q1391.44 405.468 1403.03 405.468Q1411.04 405.468 1418.58 402.166Q1426.16 398.844 1432.48 392.269Q1438.91 385.654 1442.81 376.181L1446.92 377.872L1442.48 377.872L1442.48 280.871L1482.62 280.871L1482.62 398.673Q1482.62 402.313 1483.51 403.359Q1484.25 404.234 1486.98 404.44L1491.08 404.751L1491.08 437.629L1487.32 438.211Q1482.21 439.003 1478.9 439.224Q1475.68 439.512 1472.85 439.512Q1462.79 439.512 1455.83 434.061Q1448.65 428.287 1447.7 419.026L1447.69 418.904L1446.99 404.082L1451.42 403.873L1455.2 406.199Q1444.79 423.109 1427.7 432.134Q1410.79 441.106 1390.54 441.106Q1365.29 441.106 1351.97 424.081Q1339.1 407.471 1339.1 376.277ZM1347.97 376.277Q1347.97 404.435 1358.96 418.61Q1369.62 432.231 1390.54 432.231Q1408.58 432.231 1423.56 424.286Q1438.5 416.393 1447.64 401.546L1455.18 389.31L1456.55 418.363L1452.11 418.572L1456.53 418.118Q1457.1 423.695 1461.3 427.074Q1465.85 430.637 1472.85 430.637Q1475.29 430.637 1478.31 430.369Q1481.23 430.174 1485.97 429.441L1486.64 433.826L1482.21 433.826L1482.21 408.865L1486.64 408.865L1486.31 413.29Q1479.88 412.803 1476.74 409.101Q1473.75 405.571 1473.75 398.673L1473.75 285.308L1478.19 285.308L1478.19 289.746L1446.92 289.746L1446.92 285.308L1451.35 285.308L1451.35 378.751L1451.02 379.563Q1446.46 390.613 1438.88 398.42Q1431.34 406.267 1422.14 410.295Q1412.9 414.343 1403.03 414.343Q1386.88 414.343 1378.32 402.409Q1370.37 391.136 1370.37 369.829L1370.37 285.308L1374.81 285.308L1374.81 289.746L1343.54 289.746L1343.54 285.308L1347.97 285.308L1347.97 376.277ZM1343.54 376.277L1343.54 285.308L1374.81 285.308L1374.81 369.829Q1374.81 389.728 1381.95 399.851Q1389.16 409.905 1403.03 409.905Q1411.97 409.905 1420.36 406.23Q1428.75 402.555 1435.68 395.345Q1442.69 388.134 1446.92 377.872L1446.92 285.308L1478.19 285.308L1478.19 398.673Q1478.19 403.942 1480.13 406.23Q1482.07 408.518 1486.64 408.865L1486.64 433.826Q1481.72 434.589 1478.6 434.797Q1475.48 435.074 1472.85 435.074Q1464.32 435.074 1458.56 430.567Q1452.88 425.991 1452.11 418.572L1451.42 403.873Q1441.65 419.751 1425.63 428.21Q1409.68 436.669 1390.54 436.669Q1367.46 436.669 1355.46 421.346Q1343.54 405.953 1343.54 376.277ZM1513.51 433.826L1513.51 280.871L1553.58 280.871L1553.58 438.264L1513.51 438.264L1513.51 433.826ZM1522.38 433.826L1517.94 433.826L1517.94 429.388L1549.14 429.388L1549.14 433.826L1544.71 433.826L1544.71 285.308L1549.14 285.308L1549.14 289.746L1517.94 289.746L1517.94 285.308L1522.38 285.308L1522.38 433.826ZM1513.51 260.833L1513.51 222.074L1553.58 222.074L1553.58 265.27L1513.51 265.27L1513.51 260.833ZM1522.38 260.833L1517.94 260.833L1517.94 256.395L1549.14 256.395L1549.14 260.833L1544.71 260.833L1544.71 226.512L1549.14 226.512L1549.14 230.949L1517.94 230.949L1517.94 226.512L1522.38 226.512L1522.38 260.833ZM1517.94 433.826L1517.94 285.308L1549.14 285.308L1549.14 433.826L1517.94 433.826ZM1517.94 260.833L1517.94 226.512L1549.14 226.512L1549.14 260.833L1517.94 260.833ZM1671.2 430.318Q1667.08 432.168 1660.86 434.568Q1654.52 437.049 1646.75 438.719Q1638.89 440.482 1630.35 440.482Q1619.77 440.482 1610.7 436.751Q1601.16 432.742 1595.57 424.106Q1590 415.437 1590 402.417L1590 309.437L1594.44 309.437L1594.44 313.875L1570.17 313.875L1570.17 280.871L1594.44 280.871L1594.44 285.308L1590 285.308L1590 232.058L1630.08 232.058L1630.08 285.308L1625.64 285.308L1625.64 280.871L1662.45 280.871L1662.45 313.875L1625.64 313.875L1625.64 309.437L1630.08 309.437L1630.08 392.294L1625.64 392.294L1630.07 392.019Q1630.43 397.937 1633.39 400.386Q1636.57 402.972 1641.31 402.972Q1647.14 402.972 1652.34 400.978Q1658.13 398.78 1660.53 397.519L1665.42 394.947L1674.67 428.763L1671.2 430.318ZM1667.57 422.219L1669.39 426.268L1665.11 427.44L1658.31 402.618L1662.59 401.446L1664.66 405.373Q1661.79 406.886 1655.52 409.264Q1648.79 411.847 1641.31 411.847Q1633.42 411.847 1627.73 407.221Q1621.81 402.321 1621.21 392.568L1621.2 392.431L1621.2 305L1658.02 305L1658.02 309.437L1653.58 309.437L1653.58 285.308L1658.02 285.308L1658.02 289.746L1621.2 289.746L1621.2 236.496L1625.64 236.496L1625.64 240.933L1594.44 240.933L1594.44 236.496L1598.87 236.496L1598.87 289.746L1574.61 289.746L1574.61 285.308L1579.04 285.308L1579.04 309.437L1574.61 309.437L1574.61 305L1598.87 305L1598.87 402.417Q1598.87 412.832 1603.01 419.279Q1607.12 425.619 1614.08 428.544Q1621.52 431.607 1630.35 431.607Q1637.9 431.607 1644.88 430.042Q1651.95 428.523 1657.67 426.289Q1663.66 423.974 1667.57 422.219ZM1669.39 426.268Q1665.37 428.071 1659.27 430.429Q1653.23 432.786 1645.81 434.381Q1638.4 436.045 1630.35 436.045Q1620.65 436.045 1612.39 432.647Q1604.14 429.18 1599.29 421.692Q1594.44 414.135 1594.44 402.417L1594.44 309.437L1574.61 309.437L1574.61 285.308L1594.44 285.308L1594.44 236.496L1625.64 236.496L1625.64 285.308L1658.02 285.308L1658.02 309.437L1625.64 309.437L1625.64 392.294Q1626.12 400.129 1630.56 403.804Q1635 407.409 1641.31 407.409Q1647.96 407.409 1653.93 405.121Q1659.96 402.833 1662.59 401.446L1669.39 426.268Z"/>
</svg>
