<svg xmlns="http://www.w3.org/2000/svg" xmlns:xlink="http://www.w3.org/1999/xlink" id="svg" version="1.1" viewBox="42.72 143.92 312.01 96.27"><g id="svgg"><path id="path0" d="M75.000 144.210 C 75.000 144.387,74.496 144.531,73.881 144.531 C 72.615 144.531,70.703 145.855,70.703 146.731 C 70.703 147.050,70.568 147.228,70.403 147.126 C 70.238 147.024,70.168 147.626,70.248 148.465 C 70.397 150.029,69.014 151.232,67.876 150.528 C 67.628 150.375,67.571 150.454,67.736 150.721 C 67.997 151.144,67.436 151.331,66.087 151.272 C 65.804 151.260,65.668 151.345,65.785 151.462 C 65.901 151.578,65.166 152.102,64.151 152.625 C 63.135 153.148,61.783 154.134,61.146 154.816 C 60.509 155.497,59.837 156.006,59.652 155.947 C 59.468 155.888,59.418 156.004,59.543 156.205 C 59.883 156.757,59.352 157.844,58.883 157.555 C 58.658 157.415,58.587 157.486,58.727 157.712 C 59.069 158.265,58.043 160.639,57.626 160.260 C 57.445 160.096,57.418 160.173,57.567 160.431 C 57.952 161.103,57.421 162.936,56.929 162.632 C 56.704 162.493,56.634 162.564,56.774 162.790 C 57.099 163.315,56.640 165.671,56.259 165.435 C 56.101 165.338,56.060 165.718,56.168 166.281 C 56.293 166.937,56.216 167.213,55.952 167.050 C 55.692 166.889,55.622 167.104,55.762 167.639 C 55.926 168.267,55.852 168.401,55.470 168.165 C 55.134 167.957,55.052 168.000,55.231 168.291 C 55.613 168.908,54.661 171.905,54.179 171.607 C 53.962 171.473,53.901 171.551,54.042 171.779 C 54.566 172.627,51.253 178.857,50.616 178.221 C 50.456 178.061,50.361 178.105,50.404 178.320 C 50.573 179.157,50.372 179.722,49.990 179.486 C 49.770 179.350,49.629 179.384,49.677 179.561 C 49.861 180.241,49.144 181.640,48.740 181.391 C 48.499 181.242,48.429 181.310,48.576 181.549 C 48.911 182.091,46.312 187.188,45.894 186.809 C 45.720 186.652,45.691 186.722,45.829 186.964 C 46.165 187.553,44.360 192.659,43.948 192.285 C 43.770 192.124,43.747 192.204,43.895 192.464 C 44.200 192.994,43.358 198.092,43.002 197.872 C 42.876 197.794,42.773 199.895,42.773 202.539 C 42.773 205.188,42.919 207.145,43.098 206.896 C 43.278 206.645,43.333 207.216,43.222 208.183 C 43.079 209.425,43.135 209.759,43.419 209.355 C 43.707 208.943,43.755 209.141,43.593 210.078 C 43.438 210.981,43.503 211.285,43.813 211.094 C 44.115 210.907,44.191 211.152,44.054 211.870 C 43.943 212.446,43.943 212.827,44.054 212.717 C 44.371 212.400,46.855 218.853,46.594 219.313 C 46.465 219.541,46.505 219.594,46.683 219.432 C 46.862 219.271,47.446 219.886,47.982 220.800 C 48.518 221.713,49.802 223.535,50.835 224.847 C 51.869 226.160,52.631 227.346,52.529 227.484 C 52.427 227.622,52.459 227.648,52.601 227.542 C 52.955 227.278,53.942 228.142,53.711 228.516 C 53.608 228.682,53.786 229.035,54.106 229.300 C 54.426 229.566,54.688 229.670,54.688 229.531 C 54.688 229.392,55.610 230.011,56.738 230.906 C 57.866 231.802,58.741 232.698,58.682 232.898 C 58.623 233.098,58.722 233.170,58.903 233.058 C 59.382 232.762,62.559 234.962,62.209 235.347 C 62.047 235.526,62.091 235.572,62.307 235.450 C 62.771 235.188,69.615 238.458,69.287 238.786 C 69.164 238.909,69.460 238.906,69.944 238.779 C 70.606 238.606,70.746 238.676,70.509 239.061 C 70.310 239.383,70.345 239.479,70.603 239.320 C 71.094 239.016,73.491 239.442,73.273 239.794 C 73.190 239.929,74.230 240.039,75.586 240.039 C 76.941 240.039,77.987 239.936,77.908 239.809 C 77.690 239.455,81.651 238.635,82.164 238.929 C 82.413 239.071,82.489 239.046,82.333 238.873 C 82.176 238.700,83.374 237.983,84.993 237.278 C 90.708 234.794,97.680 229.821,99.983 226.586 C 100.455 225.924,101.030 225.499,101.262 225.642 C 101.494 225.785,101.573 225.724,101.439 225.506 C 101.304 225.289,101.892 224.175,102.746 223.032 C 103.599 221.888,104.297 220.798,104.297 220.610 C 104.297 220.421,104.500 220.392,104.748 220.545 C 105.012 220.709,105.093 220.653,104.944 220.411 C 104.804 220.185,105.216 218.937,105.860 217.639 C 106.504 216.340,107.031 215.082,107.031 214.843 C 107.031 214.603,107.234 214.532,107.482 214.686 C 107.755 214.854,107.827 214.793,107.666 214.531 C 107.353 214.026,107.776 212.041,108.147 212.270 C 108.285 212.356,108.424 212.047,108.456 211.584 C 108.625 209.119,109.129 206.243,109.335 206.577 C 109.464 206.787,109.570 205.042,109.570 202.699 C 109.570 200.356,109.415 198.438,109.226 198.438 C 109.036 198.438,108.976 197.734,109.091 196.875 C 109.232 195.827,109.164 195.397,108.886 195.568 C 108.609 195.740,108.555 195.410,108.722 194.573 C 108.860 193.884,108.824 193.412,108.643 193.524 C 108.307 193.732,106.788 188.899,106.895 187.962 C 106.927 187.679,106.854 187.547,106.734 187.668 C 106.394 188.007,105.047 184.741,105.335 184.275 C 105.496 184.015,105.399 183.982,105.072 184.183 C 104.693 184.418,104.624 184.324,104.812 183.833 C 104.953 183.464,104.927 183.250,104.754 183.357 C 104.380 183.588,101.341 178.162,101.426 177.415 C 101.458 177.132,101.386 177.000,101.266 177.120 C 100.900 177.486,99.935 175.812,100.233 175.330 C 100.395 175.067,100.341 174.985,100.102 175.132 C 99.594 175.446,97.921 172.003,98.291 171.405 C 98.443 171.160,98.381 171.083,98.149 171.226 C 97.663 171.526,97.121 169.691,97.509 169.062 C 97.683 168.782,97.596 168.741,97.264 168.946 C 96.880 169.184,96.809 169.043,96.982 168.382 C 97.109 167.897,97.108 167.605,96.980 167.733 C 96.634 168.080,94.503 161.225,94.750 160.559 C 94.867 160.243,94.838 160.110,94.684 160.264 C 94.391 160.557,91.567 155.116,91.725 154.561 C 91.775 154.384,91.660 154.336,91.468 154.454 C 90.997 154.745,89.766 153.341,90.136 152.933 C 90.297 152.755,90.202 152.740,89.924 152.901 C 89.646 153.061,89.207 153.025,88.948 152.820 C 88.689 152.615,87.552 152.146,86.423 151.777 C 85.293 151.409,84.441 150.990,84.530 150.847 C 84.618 150.703,84.257 150.560,83.726 150.528 C 82.460 150.452,82.387 150.355,81.982 148.185 C 81.604 146.164,80.364 144.531,79.206 144.531 C 78.801 144.531,78.551 144.399,78.650 144.238 C 78.750 144.077,77.969 143.932,76.915 143.917 C 75.862 143.901,75.000 144.033,75.000 144.210 M80.967 156.390 C 80.854 156.574,81.115 156.612,81.547 156.475 C 84.197 155.634,89.486 160.627,89.610 164.088 C 89.631 164.676,89.806 165.061,89.998 164.943 C 90.190 164.824,90.257 165.199,90.147 165.776 C 90.037 166.352,90.048 166.722,90.172 166.599 C 90.415 166.356,92.209 172.295,92.317 173.698 C 92.353 174.163,92.455 174.473,92.542 174.385 C 92.822 174.106,95.260 179.457,95.026 179.836 C 94.902 180.035,94.976 180.091,95.189 179.959 C 95.606 179.702,97.376 182.528,97.063 182.950 C 96.960 183.089,96.991 183.116,97.133 183.010 C 97.548 182.700,98.510 184.332,98.204 184.827 C 98.047 185.082,98.097 185.172,98.320 185.034 C 98.822 184.723,100.907 188.934,100.542 189.523 C 100.383 189.781,100.444 189.857,100.689 189.705 C 101.207 189.385,102.126 191.982,101.725 192.631 C 101.556 192.905,101.610 192.985,101.861 192.830 C 102.366 192.518,102.922 194.693,102.508 195.363 C 102.340 195.635,102.391 195.720,102.631 195.572 C 103.160 195.245,103.618 197.652,103.302 199.098 C 103.118 199.939,103.159 200.059,103.478 199.609 C 103.787 199.175,103.894 199.831,103.894 202.148 C 103.894 204.192,103.770 205.078,103.536 204.708 C 103.305 204.342,103.259 204.743,103.407 205.842 C 103.537 206.813,103.483 207.449,103.282 207.327 C 103.088 207.208,102.900 207.753,102.865 208.536 C 102.744 211.178,98.443 220.213,97.565 219.670 C 97.333 219.527,97.257 219.592,97.394 219.814 C 97.945 220.705,91.047 227.650,90.157 227.101 C 89.974 226.988,89.873 227.128,89.932 227.412 C 89.993 227.706,89.732 227.904,89.329 227.871 C 88.939 227.839,88.718 227.911,88.839 228.031 C 89.205 228.397,87.531 229.362,87.048 229.064 C 86.800 228.910,86.703 228.956,86.833 229.165 C 87.133 229.651,82.906 231.745,82.337 231.393 C 82.101 231.247,82.021 231.308,82.157 231.528 C 82.498 232.079,77.728 233.594,75.654 233.594 C 73.555 233.594,69.042 232.116,69.396 231.544 C 69.541 231.309,69.468 231.243,69.228 231.391 C 68.691 231.723,65.977 230.456,66.257 230.004 C 66.371 229.819,66.319 229.707,66.142 229.755 C 65.462 229.939,64.063 229.222,64.312 228.818 C 64.457 228.584,64.394 228.506,64.172 228.643 C 63.452 229.088,58.062 224.715,57.996 223.633 C 57.983 223.418,57.760 223.286,57.501 223.340 C 55.846 223.684,49.128 211.083,49.898 209.078 C 50.040 208.708,49.971 208.565,49.726 208.717 C 49.201 209.042,48.786 206.556,49.102 204.977 C 49.272 204.128,49.211 203.865,48.889 204.064 C 48.565 204.264,48.439 203.645,48.443 201.879 C 48.448 200.105,48.559 199.578,48.840 200.000 C 49.112 200.409,49.151 200.068,48.969 198.866 C 48.782 197.626,48.833 197.223,49.153 197.421 C 49.468 197.615,49.524 197.329,49.347 196.443 C 49.187 195.640,49.239 195.279,49.492 195.435 C 49.736 195.586,49.813 195.289,49.692 194.657 C 49.544 193.887,49.622 193.712,50.004 193.948 C 50.342 194.157,50.416 194.108,50.227 193.802 C 49.824 193.148,51.136 189.385,51.655 189.706 C 51.894 189.853,51.961 189.782,51.812 189.540 C 51.457 188.967,52.762 186.299,53.250 186.601 C 53.466 186.734,53.514 186.641,53.358 186.389 C 53.024 185.848,54.047 184.255,54.462 184.670 C 54.622 184.830,54.717 184.785,54.674 184.570 C 54.498 183.698,54.713 183.173,55.138 183.436 C 55.387 183.589,55.485 183.546,55.358 183.339 C 55.050 182.842,57.576 178.409,57.952 178.785 C 58.113 178.946,58.117 178.747,57.962 178.342 C 57.750 177.791,57.809 177.686,58.197 177.926 C 58.516 178.123,58.620 178.094,58.469 177.849 C 58.145 177.324,59.389 174.181,59.816 174.445 C 59.998 174.558,60.063 174.421,59.960 174.141 C 59.693 173.415,61.519 167.905,61.909 168.260 C 62.088 168.422,62.124 168.247,61.989 167.872 C 60.917 164.885,66.913 155.852,69.347 156.786 C 69.685 156.916,69.863 156.861,69.741 156.664 C 69.421 156.147,70.671 156.027,76.231 156.042 C 78.949 156.049,81.080 156.205,80.967 156.390 M76.563 170.577 C 74.647 170.888,73.794 171.661,72.492 174.263 C 71.766 175.714,71.038 176.781,70.875 176.634 C 70.712 176.487,70.692 176.567,70.831 176.811 C 71.197 177.451,70.318 179.737,69.823 179.431 C 69.596 179.291,69.523 179.359,69.662 179.582 C 70.032 180.181,69.138 182.467,68.652 182.166 C 68.424 182.025,68.346 182.084,68.478 182.297 C 68.832 182.870,67.911 185.557,67.457 185.277 C 67.238 185.141,67.188 185.232,67.343 185.483 C 67.722 186.096,66.370 190.258,65.889 189.961 C 65.678 189.830,65.617 189.906,65.756 190.130 C 66.087 190.665,65.219 194.959,64.829 194.717 C 64.663 194.615,64.613 195.278,64.717 196.191 C 64.823 197.128,64.764 197.654,64.580 197.398 C 64.394 197.139,64.255 198.087,64.256 199.611 C 64.257 201.077,64.333 202.202,64.424 202.112 C 64.515 202.021,64.898 203.161,65.275 204.646 C 65.653 206.131,66.332 208.072,66.784 208.960 C 67.237 209.847,67.485 210.787,67.335 211.049 C 67.185 211.310,67.207 211.392,67.384 211.231 C 67.781 210.871,69.552 213.713,69.243 214.214 C 69.120 214.412,69.223 214.448,69.471 214.295 C 69.896 214.032,70.112 214.558,69.936 215.430 C 69.892 215.645,69.986 215.691,70.144 215.533 C 70.532 215.145,72.305 217.590,71.997 218.087 C 71.864 218.303,71.931 218.371,72.146 218.238 C 72.551 217.988,74.470 219.899,74.315 220.396 C 74.267 220.549,74.519 220.564,74.873 220.427 C 75.266 220.277,75.421 220.337,75.270 220.582 C 74.747 221.428,78.204 220.383,79.253 219.378 C 79.844 218.812,80.475 218.483,80.656 218.647 C 80.837 218.811,80.879 218.759,80.749 218.530 C 80.446 217.998,81.798 215.912,82.191 216.305 C 82.354 216.468,82.452 216.426,82.408 216.211 C 82.232 215.339,82.447 214.813,82.873 215.076 C 83.143 215.244,83.218 215.184,83.060 214.928 C 82.738 214.408,84.133 211.998,84.527 212.392 C 84.681 212.546,84.680 212.340,84.525 211.936 C 84.329 211.427,84.382 211.286,84.695 211.480 C 84.990 211.662,85.067 211.550,84.916 211.156 C 84.780 210.802,84.942 210.455,85.309 210.314 C 85.652 210.182,85.847 209.935,85.742 209.765 C 85.443 209.281,86.536 206.982,86.905 207.318 C 87.086 207.482,87.113 207.406,86.965 207.147 C 86.634 206.570,87.079 204.623,87.485 204.874 C 87.646 204.973,87.690 204.594,87.582 204.032 C 87.475 203.469,87.544 203.106,87.736 203.225 C 88.165 203.491,88.209 197.943,87.781 197.626 C 87.613 197.501,87.437 196.507,87.390 195.417 C 87.343 194.326,87.211 193.492,87.096 193.563 C 86.724 193.793,85.457 188.743,85.762 188.249 C 85.964 187.922,85.896 187.870,85.546 188.087 C 85.164 188.323,85.089 188.188,85.254 187.561 C 85.375 187.097,85.333 186.805,85.161 186.911 C 84.741 187.171,84.280 185.243,84.621 184.650 C 84.769 184.391,84.742 184.315,84.560 184.480 C 84.149 184.854,81.566 178.561,81.906 178.012 C 82.041 177.793,81.972 177.725,81.751 177.861 C 81.527 178.000,81.066 177.366,80.706 176.423 C 80.352 175.496,79.504 173.874,78.820 172.818 C 78.137 171.762,77.613 170.767,77.656 170.605 C 77.699 170.444,77.690 170.336,77.637 170.366 C 77.583 170.395,77.100 170.490,76.563 170.577 M77.111 178.967 C 76.935 179.252,77.004 179.311,77.301 179.128 C 78.623 178.311,79.766 181.453,78.725 183.041 C 76.886 185.848,73.047 184.612,73.047 181.214 C 73.047 180.007,74.777 178.516,76.177 178.516 C 76.994 178.516,77.299 178.663,77.111 178.967 M81.823 186.937 C 83.961 189.763,80.373 193.722,77.547 191.656 C 76.534 190.915,76.392 187.671,77.331 186.731 C 78.301 185.761,81.029 185.886,81.823 186.937 M74.251 187.057 C 75.609 188.156,75.649 190.756,74.324 191.798 C 72.994 192.844,71.652 192.781,70.490 191.619 C 69.499 190.628,69.060 187.944,69.982 188.514 C 70.279 188.697,70.326 188.620,70.121 188.288 C 69.249 186.877,72.742 185.835,74.251 187.057 M73.315 195.381 C 76.014 197.917,72.443 201.804,69.303 199.747 C 68.738 199.377,68.410 198.870,68.531 198.555 C 68.647 198.253,68.568 198.114,68.355 198.245 C 67.633 198.691,67.964 196.596,68.778 195.560 C 69.827 194.228,71.996 194.142,73.315 195.381 M83.956 195.560 C 85.662 197.730,84.396 200.249,81.561 200.326 C 78.833 200.400,77.557 197.335,79.549 195.489 C 80.977 194.166,82.883 194.197,83.956 195.560 M83.212 203.328 C 84.243 204.261,84.206 206.159,83.135 207.299 C 81.971 208.538,79.962 208.513,78.693 207.244 C 75.909 204.460,80.278 200.674,83.212 203.328 M74.269 203.871 C 76.417 206.524,72.996 209.858,70.084 207.950 C 69.519 207.580,69.191 207.073,69.312 206.758 C 69.428 206.456,69.349 206.317,69.136 206.448 C 68.443 206.877,68.730 204.818,69.500 203.839 C 70.530 202.531,73.198 202.548,74.269 203.871 M78.338 211.115 C 80.842 213.619,77.365 218.047,74.576 215.906 C 72.612 214.398,73.060 209.543,75.049 210.773 C 75.340 210.952,75.408 210.890,75.233 210.607 C 74.663 209.685,77.347 210.124,78.338 211.115 " stroke="none" fill="#f47014" fill-rule="evenodd"/><path id="path1" d="M144.531 174.751 C 142.020 175.484,140.386 176.407,138.466 178.176 C 136.565 179.929,136.279 179.791,135.948 176.953 L 135.742 175.195 132.520 175.124 L 129.297 175.053 129.297 200.320 L 129.297 225.586 132.813 225.586 L 136.328 225.586 136.328 216.309 C 136.328 211.030,136.481 207.031,136.682 207.031 C 136.876 207.031,137.799 207.673,138.733 208.458 C 147.504 215.830,161.953 210.740,164.494 199.383 C 164.752 198.233,165.067 197.358,165.196 197.438 C 165.805 197.815,164.894 187.601,164.144 185.647 C 160.856 177.076,152.490 172.429,144.531 174.751 M182.937 174.648 C 177.183 175.609,171.875 180.368,171.875 184.566 C 171.875 186.078,178.680 186.111,179.059 184.600 C 180.809 177.629,194.727 178.294,194.727 185.349 C 194.727 187.459,193.596 188.793,191.281 189.414 C 189.034 190.017,178.927 191.074,178.418 190.760 C 178.190 190.619,178.107 190.670,178.232 190.873 C 178.358 191.076,177.576 191.557,176.494 191.941 C 174.165 192.768,171.393 195.371,170.743 197.341 C 170.335 198.577,169.914 204.830,170.262 204.479 C 170.342 204.398,170.841 205.204,171.371 206.269 C 174.722 212.991,186.015 213.891,192.581 207.959 C 194.443 206.277,194.922 206.492,194.922 209.007 L 194.922 210.938 198.464 210.938 L 202.007 210.938 201.882 197.168 C 201.760 183.651,201.741 183.361,200.832 181.351 C 198.370 175.904,191.292 173.253,182.937 174.648 M224.232 174.831 C 221.851 175.486,218.729 177.337,217.612 178.756 C 216.719 179.892,216.032 179.955,215.967 178.906 C 215.940 178.477,215.874 177.949,215.820 177.734 C 215.767 177.520,215.701 176.816,215.674 176.172 L 215.625 175.000 212.305 175.000 L 208.984 175.000 208.984 200.369 L 208.984 225.738 212.500 225.662 L 216.015 225.586 216.015 216.527 C 216.016 206.341,216.047 206.241,218.506 208.507 C 228.704 217.908,244.947 208.641,245.056 193.359 C 245.120 184.437,239.229 175.000,233.595 175.000 C 233.354 175.000,233.237 174.868,233.335 174.707 C 233.684 174.133,226.410 174.231,224.232 174.831 M262.676 174.790 C 256.859 175.846,251.953 180.267,251.953 184.452 L 251.953 185.547 255.469 185.547 C 258.460 185.547,258.984 185.452,258.984 184.909 C 258.984 182.374,263.055 179.688,266.897 179.688 C 268.156 179.688,269.094 179.838,268.980 180.022 C 268.867 180.206,269.164 180.281,269.641 180.190 C 271.654 179.805,274.683 182.982,274.751 185.549 C 274.797 187.331,273.150 189.335,272.001 188.895 C 271.695 188.777,271.541 188.839,271.661 189.031 C 271.887 189.398,269.194 189.871,262.803 190.586 C 256.656 191.274,253.314 192.932,251.362 196.262 C 247.890 202.187,251.807 210.555,258.524 211.563 C 261.005 211.935,266.370 211.976,266.151 211.621 C 266.051 211.460,266.200 211.326,266.481 211.324 C 267.526 211.317,271.059 209.404,272.598 208.014 C 274.590 206.215,275.174 206.481,274.835 209.034 L 274.582 210.938 278.209 210.938 L 281.836 210.938 281.741 197.374 C 281.664 186.396,281.531 183.466,281.044 181.999 C 279.059 176.022,271.729 173.145,262.676 174.790 M334.864 174.811 C 330.050 175.857,326.112 178.957,324.834 182.708 C 323.851 185.594,323.806 185.549,327.637 185.529 L 331.055 185.510 331.862 183.869 C 333.117 181.318,335.282 180.021,338.695 179.776 C 340.531 179.645,341.438 179.711,341.281 179.965 C 341.138 180.196,341.393 180.288,341.906 180.190 C 343.878 179.813,347.266 183.370,347.266 185.818 C 347.266 188.649,345.494 189.443,337.025 190.407 C 326.604 191.593,322.871 194.432,322.869 201.172 C 322.865 211.494,335.165 215.577,344.592 208.384 C 347.126 206.451,347.266 206.486,347.266 209.049 L 347.266 210.938 350.781 210.938 L 354.297 210.938 354.292 198.145 C 354.287 185.003,354.111 183.115,352.614 180.222 C 350.263 175.678,342.195 173.219,334.864 174.811 M288.734 175.295 C 286.386 175.388,285.528 175.555,285.662 175.895 C 285.764 176.155,289.054 184.435,292.974 194.296 L 300.100 212.224 299.281 213.910 C 297.491 217.594,294.205 219.922,290.795 219.922 C 289.770 219.922,289.466 220.801,289.458 223.787 L 289.453 225.894 292.480 225.639 C 298.748 225.113,301.873 222.801,304.963 216.406 C 306.500 213.226,321.094 175.985,321.094 175.244 C 321.094 174.860,313.981 175.283,313.744 175.681 C 313.597 175.927,311.367 182.201,308.789 189.621 C 306.211 197.042,303.903 203.116,303.661 203.119 C 303.129 203.126,302.337 201.286,299.461 193.359 C 294.704 180.248,292.757 175.256,292.383 175.213 C 292.168 175.188,290.526 175.225,288.734 175.295 M150.942 180.760 C 158.693 183.529,161.037 195.692,155.119 202.433 C 149.831 208.455,139.103 206.145,136.512 198.425 C 132.931 187.757,141.425 177.359,150.942 180.760 M228.746 180.412 C 228.632 180.596,229.000 180.659,229.562 180.551 C 230.218 180.426,230.494 180.503,230.331 180.766 C 230.178 181.014,230.352 181.105,230.770 180.996 C 232.598 180.518,236.699 184.990,237.750 188.609 C 240.838 199.229,233.033 208.240,223.287 205.307 C 213.923 202.488,212.787 186.083,221.643 181.559 C 224.247 180.228,229.371 179.401,228.746 180.412 M195.201 194.280 C 195.760 198.455,190.670 206.082,187.823 205.338 C 187.430 205.235,187.194 205.290,187.300 205.461 C 187.822 206.306,181.675 206.553,180.090 205.750 C 177.612 204.497,176.626 200.825,178.028 198.074 C 178.987 196.191,180.918 195.345,185.347 194.863 C 187.426 194.637,190.212 194.137,191.536 193.751 C 194.604 192.857,195.019 192.917,195.201 194.280 M275.000 195.580 C 275.000 205.488,258.999 211.068,257.254 201.768 C 256.500 197.747,259.236 195.532,265.989 194.698 C 268.592 194.377,271.377 193.877,272.178 193.587 C 274.909 192.598,275.000 192.662,275.000 195.580 M347.372 195.866 C 347.220 200.416,343.141 205.487,339.525 205.621 C 338.883 205.645,338.439 205.796,338.538 205.957 C 339.027 206.753,333.288 206.229,331.991 205.359 C 328.566 203.061,329.948 194.863,333.599 195.818 C 334.027 195.929,334.283 195.870,334.169 195.686 C 333.951 195.333,334.495 195.225,339.913 194.545 C 341.778 194.311,343.975 193.871,344.796 193.567 C 347.273 192.651,347.473 192.829,347.372 195.866 M194.247 209.375 C 194.247 210.342,194.323 210.737,194.416 210.254 C 194.509 209.771,194.509 208.979,194.416 208.496 C 194.323 208.013,194.247 208.408,194.247 209.375 " stroke="none" fill="#fefff0" fill-rule="evenodd"/><path id="path2" d="M71.955 144.550 C 70.953 144.952,69.923 147.063,69.920 148.718 C 69.919 149.722,69.660 149.905,66.502 151.129 C 60.543 153.439,58.735 156.002,55.861 166.211 C 54.417 171.343,53.088 174.300,49.934 179.404 C 46.158 185.513,42.892 193.917,43.002 197.242 C 43.020 197.792,43.369 196.748,43.778 194.922 C 45.018 189.384,47.691 183.350,51.266 178.016 C 53.253 175.051,54.697 171.593,56.438 165.625 C 59.399 155.474,60.530 154.002,67.578 151.125 C 70.117 150.089,70.117 150.089,70.387 148.223 C 70.710 145.991,71.675 144.911,73.700 144.520 C 75.026 144.263,75.063 144.228,74.023 144.210 C 73.379 144.199,72.448 144.352,71.955 144.550 M79.151 144.410 C 80.442 144.663,81.627 146.192,81.998 148.082 C 82.308 149.662,82.340 149.698,82.379 148.516 C 82.457 146.175,80.817 144.060,79.030 144.194 C 78.474 144.236,78.500 144.282,79.151 144.410 M83.910 150.781 C 84.836 151.201,86.287 151.753,87.135 152.007 C 90.957 153.152,93.181 156.623,96.114 166.016 C 97.950 171.896,98.496 173.131,101.698 178.646 C 104.944 184.237,106.162 186.773,107.425 190.566 C 108.044 192.424,108.560 193.648,108.572 193.285 C 108.632 191.445,104.795 182.820,101.578 177.564 C 99.006 173.363,98.141 171.392,96.651 166.353 C 93.484 155.634,91.732 153.181,85.688 151.001 C 82.402 149.816,81.550 149.710,83.910 150.781 M69.664 156.420 C 66.186 157.508,63.934 160.098,62.538 164.617 C 62.081 166.096,61.778 167.377,61.864 167.463 C 61.950 167.549,62.385 166.424,62.830 164.962 C 64.445 159.661,67.138 157.094,71.920 156.300 C 73.557 156.028,73.720 155.946,72.656 155.931 C 71.904 155.920,70.558 156.140,69.664 156.420 M83.789 157.385 C 87.544 159.145,88.747 161.004,90.220 167.321 C 91.382 172.303,93.083 176.398,95.964 181.143 C 100.130 188.007,100.996 189.917,102.558 195.703 C 103.051 197.529,103.468 198.648,103.485 198.188 C 103.593 195.241,100.573 187.934,96.525 181.348 C 93.617 176.615,92.169 173.160,90.637 167.302 C 88.832 160.400,87.521 158.462,83.478 156.721 C 81.262 155.766,81.523 156.322,83.789 157.385 M60.562 171.188 C 59.550 174.586,56.469 181.019,54.435 183.984 C 52.030 187.489,49.158 194.378,49.246 196.428 C 49.262 196.781,49.614 195.878,50.030 194.420 C 51.037 190.889,52.660 187.380,54.853 183.989 C 58.204 178.809,61.998 170.162,61.643 168.516 C 61.577 168.211,61.091 169.414,60.562 171.188 M73.912 171.200 C 71.728 173.525,64.738 191.425,64.884 194.319 C 64.906 194.758,65.096 194.414,65.307 193.555 C 66.524 188.578,71.036 176.708,73.121 172.998 C 76.274 167.388,80.312 172.539,85.411 188.672 C 86.328 191.572,87.085 193.659,87.093 193.310 C 87.112 192.579,85.256 186.462,83.968 183.008 C 82.273 178.463,78.611 171.172,77.806 170.742 C 76.492 170.038,74.818 170.235,73.912 171.200 M74.006 179.474 C 72.446 181.034,72.987 183.541,75.068 184.403 C 77.232 185.299,79.619 183.213,79.105 180.876 C 78.587 178.518,75.744 177.736,74.006 179.474 M78.119 179.964 C 80.192 182.599,76.761 185.781,74.396 183.416 C 73.212 182.232,73.174 180.995,74.287 179.810 C 75.457 178.565,77.069 178.630,78.119 179.964 M77.344 186.719 C 76.914 187.148,76.574 187.808,76.587 188.184 C 76.607 188.730,76.680 188.699,76.950 188.030 C 77.136 187.570,77.691 186.910,78.184 186.565 C 78.677 186.220,78.865 185.938,78.603 185.938 C 78.340 185.938,77.773 186.289,77.344 186.719 M80.078 186.215 C 82.280 187.024,82.805 189.959,81.002 191.378 C 80.436 191.823,80.172 192.188,80.416 192.188 C 80.660 192.188,81.211 191.836,81.641 191.406 C 83.225 189.822,82.152 185.876,80.161 185.968 C 79.622 185.993,79.606 186.041,80.078 186.215 M70.565 187.286 C 67.709 189.933,71.302 194.175,74.361 191.769 C 74.927 191.323,75.379 190.664,75.366 190.304 C 75.348 189.822,75.250 189.875,74.997 190.502 C 74.287 192.265,72.000 192.709,70.718 191.333 C 68.328 188.767,71.953 185.199,74.432 187.678 C 74.959 188.205,75.391 188.481,75.391 188.292 C 75.391 186.616,72.041 185.918,70.565 187.286 M76.563 190.147 C 76.563 190.870,78.034 192.191,78.809 192.163 C 79.355 192.143,79.324 192.070,78.655 191.800 C 78.195 191.614,77.535 191.059,77.190 190.566 C 76.845 190.073,76.563 189.885,76.563 190.147 M87.242 194.922 C 87.378 195.459,87.492 196.294,87.495 196.777 C 87.498 197.261,87.657 197.656,87.849 197.656 C 88.208 197.656,87.652 194.532,87.226 194.152 C 87.098 194.038,87.105 194.385,87.242 194.922 M68.778 195.560 C 67.683 196.953,67.760 198.281,69.002 199.433 C 70.983 201.268,74.219 200.070,74.219 197.501 C 74.219 194.736,70.477 193.402,68.778 195.560 M79.549 195.489 C 77.843 197.071,78.825 200.414,80.985 200.375 C 81.677 200.363,81.601 200.258,80.580 199.814 C 78.084 198.729,78.786 195.274,81.559 194.996 C 84.588 194.694,85.387 198.425,82.617 199.940 C 82.028 200.262,81.987 200.370,82.451 200.379 C 83.375 200.397,84.766 198.718,84.766 197.586 C 84.766 194.850,81.608 193.581,79.549 195.489 M73.220 195.790 C 75.146 198.540,71.715 201.454,69.263 199.151 C 68.766 198.684,68.359 197.893,68.359 197.393 C 68.359 195.154,71.946 193.971,73.220 195.790 M64.544 196.484 C 64.544 197.236,64.624 197.544,64.722 197.168 C 64.821 196.792,64.821 196.177,64.722 195.801 C 64.624 195.425,64.544 195.732,64.544 196.484 M108.984 197.266 C 108.984 197.910,109.130 198.438,109.307 198.438 C 109.485 198.438,109.553 197.910,109.458 197.266 C 109.364 196.621,109.218 196.094,109.135 196.094 C 109.052 196.094,108.984 196.621,108.984 197.266 M64.174 199.805 C 64.177 200.879,64.253 201.272,64.343 200.678 C 64.433 200.084,64.430 199.206,64.337 198.725 C 64.245 198.245,64.171 198.730,64.174 199.805 M88.016 200.391 C 88.016 201.787,88.087 202.358,88.173 201.660 C 88.260 200.962,88.260 199.819,88.173 199.121 C 88.087 198.423,88.016 198.994,88.016 200.391 M42.721 202.539 C 42.722 204.688,42.787 205.517,42.867 204.381 C 42.946 203.246,42.945 201.488,42.865 200.475 C 42.785 199.462,42.720 200.391,42.721 202.539 M109.267 203.809 C 108.542 219.833,96.465 234.501,80.273 239.024 C 78.770 239.445,77.904 239.801,78.350 239.816 C 79.559 239.857,84.179 238.198,87.500 236.529 C 98.083 231.212,105.394 222.507,108.666 211.328 C 109.352 208.984,110.183 198.828,109.688 198.828 C 109.581 198.828,109.392 201.069,109.267 203.809 M103.584 201.758 C 103.165 215.719,93.734 227.743,79.538 232.416 C 70.134 235.512,55.484 225.019,50.764 211.807 C 49.764 209.008,49.373 208.726,50.172 211.380 C 54.149 224.596,70.007 236.052,79.797 232.783 C 94.074 228.016,104.527 214.414,103.807 201.538 L 103.666 199.023 103.584 201.758 M48.563 201.953 C 48.563 203.350,48.633 203.921,48.720 203.223 C 48.807 202.524,48.807 201.382,48.720 200.684 C 48.633 199.985,48.563 200.557,48.563 201.953 M64.475 202.666 C 64.385 206.430,71.028 218.312,74.357 220.342 C 77.592 222.314,79.808 220.626,84.213 212.832 C 84.957 211.515,85.499 210.368,85.415 210.285 C 85.332 210.202,84.404 211.674,83.354 213.557 C 79.909 219.736,77.336 221.665,74.655 220.082 C 71.967 218.494,66.545 209.576,65.240 204.598 C 64.831 203.036,64.486 202.166,64.475 202.666 M79.386 202.605 C 77.797 203.245,77.393 205.944,78.693 207.244 C 80.674 209.225,83.984 207.932,83.984 205.179 C 83.984 203.977,82.521 202.322,81.490 202.359 C 81.251 202.368,81.536 202.636,82.124 202.955 C 84.102 204.028,83.920 207.129,81.849 207.649 C 78.261 208.549,76.784 204.516,80.090 202.843 C 81.008 202.379,80.433 202.184,79.386 202.605 M69.560 203.764 C 68.465 205.156,68.541 206.485,69.784 207.636 C 72.569 210.217,76.530 206.738,74.190 203.764 C 73.745 203.198,73.192 202.734,72.961 202.734 C 72.731 202.734,73.007 203.165,73.576 203.692 C 74.850 204.873,74.898 206.234,73.705 207.354 C 71.114 209.788,67.586 206.206,70.099 203.693 C 70.627 203.166,70.903 202.734,70.714 202.734 C 70.524 202.734,70.005 203.198,69.560 203.764 M86.794 205.961 C 85.468 210.126,85.467 210.131,86.498 207.950 C 87.355 206.139,88.193 203.119,87.836 203.129 C 87.759 203.131,87.290 204.405,86.794 205.961 M48.913 206.055 C 48.917 206.484,49.055 207.363,49.219 208.008 C 49.487 209.060,49.518 209.080,49.524 208.203 C 49.528 207.666,49.391 206.787,49.219 206.250 C 48.974 205.485,48.908 205.443,48.913 206.055 M43.008 207.650 C 43.029 208.276,43.196 209.229,43.379 209.766 C 43.602 210.424,43.637 210.106,43.485 208.789 C 43.231 206.592,42.948 205.917,43.008 207.650 M74.039 211.226 C 71.315 214.164,75.325 218.172,78.263 215.448 C 79.613 214.198,79.644 212.421,78.338 211.115 C 77.026 209.803,75.318 209.847,74.039 211.226 M78.051 211.343 C 79.250 212.460,79.172 214.187,77.877 215.206 C 76.525 216.269,75.568 216.228,74.396 215.057 C 71.917 212.578,75.485 208.953,78.051 211.343 M43.755 211.365 C 43.726 214.809,48.921 223.886,53.544 228.468 C 58.760 233.637,69.328 239.861,72.852 239.838 C 73.281 239.836,72.203 239.335,70.455 238.727 C 58.457 234.550,48.784 225.173,44.867 213.920 C 44.258 212.172,43.758 211.022,43.755 211.365 M74.712 240.124 C 75.306 240.214,76.185 240.211,76.666 240.119 C 77.146 240.026,76.660 239.953,75.586 239.955 C 74.512 239.958,74.119 240.034,74.712 240.124 " stroke="none" fill="#f83304" fill-rule="evenodd"/><path id="path3" d="M143.862 174.374 C 141.553 175.125,138.928 176.731,137.781 178.095 L 136.807 179.252 136.568 178.054 C 136.436 177.395,136.328 176.350,136.328 175.732 L 136.328 174.609 132.617 174.609 L 128.906 174.609 128.906 200.391 L 128.906 226.172 132.910 226.172 L 136.914 226.172 136.803 216.739 L 136.691 207.306 138.318 208.776 C 142.238 212.317,149.443 213.472,154.688 211.401 C 169.022 205.740,169.607 181.580,155.567 175.091 C 152.849 173.834,146.681 173.456,143.862 174.374 M182.336 174.206 C 176.671 175.236,172.182 179.407,171.315 184.447 L 171.068 185.887 175.151 186.010 L 179.234 186.133 179.647 184.749 C 181.576 178.298,194.297 178.874,194.297 185.413 C 194.297 188.169,192.344 189.080,184.766 189.859 C 177.232 190.632,173.631 192.020,171.490 194.977 C 168.243 199.458,169.611 207.349,174.156 210.357 C 179.349 213.793,189.743 212.517,193.289 208.008 C 194.413 206.580,194.619 206.785,194.470 209.180 L 194.336 211.329 198.366 211.329 L 202.396 211.328 202.272 196.973 L 202.148 182.617 201.090 180.610 C 198.295 175.311,190.640 172.697,182.336 174.206 M224.595 174.189 C 222.433 174.612,219.724 176.077,217.991 177.758 L 216.406 179.296 216.357 178.125 C 216.331 177.480,216.265 176.777,216.211 176.563 C 216.157 176.348,216.091 175.820,216.064 175.391 C 216.019 174.668,215.739 174.609,212.305 174.609 L 208.594 174.609 208.594 200.391 L 208.594 226.172 212.500 226.172 L 216.406 226.172 216.406 216.751 L 216.406 207.331 218.020 208.788 C 228.335 218.108,244.680 209.762,245.557 194.727 C 246.368 180.830,237.090 171.741,224.595 174.189 M262.414 174.204 C 256.736 175.243,252.105 179.476,251.328 184.339 L 251.072 185.938 255.224 185.938 C 258.803 185.938,259.375 185.850,259.375 185.300 C 259.375 180.182,269.427 178.349,273.161 182.787 C 275.997 186.157,273.966 188.758,267.959 189.446 C 261.217 190.218,258.420 190.703,256.445 191.441 C 245.620 195.489,248.141 211.074,259.827 212.343 C 264.548 212.856,270.959 210.845,273.237 208.138 C 274.476 206.665,274.506 206.694,274.300 209.180 L 274.122 211.328 278.299 211.328 L 282.477 211.328 282.352 197.168 L 282.227 183.008 281.129 180.772 C 278.478 175.374,270.780 172.672,262.414 174.204 M333.939 174.420 C 328.528 175.901,324.729 179.562,323.879 184.116 L 323.538 185.938 326.972 185.938 C 328.860 185.938,330.653 186.033,330.956 186.149 C 331.337 186.295,331.652 185.878,331.974 184.802 C 333.492 179.736,341.790 178.466,345.393 182.748 C 348.502 186.442,346.658 188.798,340.096 189.514 C 326.051 191.047,322.076 193.747,322.305 201.596 C 322.609 212.007,336.413 216.365,344.903 208.732 L 346.875 206.959 346.875 209.143 L 346.875 211.328 350.804 211.328 L 354.732 211.328 354.612 197.139 L 354.492 182.950 353.313 180.646 C 350.523 175.194,341.595 172.325,333.939 174.420 M154.799 175.383 C 166.811 179.929,169.051 200.646,158.398 208.687 C 152.651 213.026,144.226 212.988,138.922 208.601 C 137.878 207.738,136.868 207.031,136.676 207.031 C 136.482 207.031,136.328 211.140,136.328 216.309 L 136.328 225.586 132.813 225.586 L 129.297 225.586 129.297 200.320 L 129.297 175.053 132.520 175.124 L 135.742 175.195 135.948 176.953 C 136.279 179.791,136.565 179.929,138.466 178.176 C 142.682 174.291,149.039 173.203,154.799 175.383 M190.984 174.666 C 196.014 175.541,199.176 177.687,200.832 181.351 C 201.741 183.361,201.760 183.651,201.882 197.168 L 202.007 210.938 198.464 210.938 L 194.922 210.938 194.922 209.007 C 194.922 206.492,194.443 206.277,192.581 207.959 C 183.917 215.786,170.366 211.711,170.268 201.248 C 170.204 194.411,173.927 191.542,184.314 190.426 C 193.091 189.482,194.727 188.685,194.727 185.349 C 194.727 178.294,180.809 177.629,179.059 184.600 C 178.680 186.111,171.875 186.078,171.875 184.566 C 171.875 177.968,181.449 173.008,190.984 174.666 M231.984 174.600 C 247.658 177.573,250.102 203.534,235.352 210.356 C 229.658 212.990,222.519 212.206,218.506 208.507 C 216.047 206.241,216.016 206.341,216.015 216.527 L 216.015 225.586 212.500 225.662 L 208.984 225.738 208.984 200.369 L 208.984 175.000 212.305 175.000 L 215.625 175.000 215.674 176.172 C 215.701 176.816,215.767 177.520,215.820 177.734 C 215.874 177.949,215.940 178.477,215.967 178.906 C 216.032 179.955,216.719 179.892,217.612 178.756 C 220.269 175.379,226.535 173.567,231.984 174.600 M271.315 174.646 C 280.507 176.342,281.610 178.747,281.741 197.374 L 281.836 210.938 278.209 210.938 L 274.582 210.938 274.835 209.034 C 275.174 206.479,274.590 206.215,272.591 208.021 C 265.296 214.611,252.928 212.540,250.525 204.326 C 248.342 196.866,252.970 191.686,262.803 190.586 C 273.784 189.358,275.682 188.358,274.609 184.373 C 272.902 178.034,258.984 178.512,258.984 184.909 C 258.984 185.452,258.460 185.547,255.469 185.547 L 251.953 185.547 251.953 184.452 C 251.953 177.911,261.848 172.900,271.315 174.646 M343.327 174.660 C 352.932 176.309,354.285 179.207,354.292 198.145 L 354.297 210.938 350.781 210.938 L 347.266 210.938 347.266 209.049 C 347.266 206.486,347.126 206.451,344.592 208.384 C 335.165 215.577,322.865 211.494,322.869 201.172 C 322.871 194.432,326.604 191.593,337.025 190.407 C 345.385 189.456,347.266 188.634,347.266 185.936 C 347.266 178.976,335.073 177.340,331.862 183.869 L 331.055 185.510 327.637 185.529 C 323.806 185.549,323.851 185.594,324.834 182.708 C 326.905 176.630,334.797 173.196,343.327 174.660 M284.874 175.293 C 285.193 176.382,298.774 210.497,299.224 211.339 C 300.592 213.895,295.223 219.076,291.023 219.253 L 289.063 219.336 289.063 222.811 L 289.063 226.287 292.782 226.065 C 302.380 225.492,302.900 224.649,317.788 185.547 C 319.793 180.283,321.551 175.669,321.695 175.293 C 321.936 174.668,321.596 174.609,317.709 174.609 L 313.460 174.609 309.462 186.035 C 307.263 192.319,305.048 198.667,304.540 200.141 C 304.031 201.615,303.532 202.670,303.430 202.485 C 303.327 202.300,300.976 195.954,298.204 188.382 L 293.164 174.616 288.919 174.613 C 285.060 174.610,284.693 174.671,284.874 175.293 M295.019 181.281 C 296.254 184.594,298.253 190.029,299.461 193.359 C 302.337 201.286,303.129 203.126,303.661 203.119 C 303.903 203.116,306.211 197.042,308.789 189.621 C 311.367 182.201,313.597 175.927,313.744 175.681 C 313.981 175.283,321.094 174.860,321.094 175.244 C 321.094 175.985,306.500 213.226,304.963 216.406 C 301.873 222.801,298.748 225.113,292.480 225.639 L 289.453 225.894 289.458 223.787 C 289.466 220.801,289.770 219.922,290.795 219.922 C 294.205 219.922,297.491 217.594,299.281 213.910 L 300.100 212.224 292.974 194.296 C 289.054 184.435,285.764 176.155,285.662 175.895 C 285.503 175.493,290.457 174.990,292.383 175.213 C 292.598 175.238,293.784 177.968,295.019 181.281 M143.370 180.756 C 135.526 183.525,133.075 196.408,139.223 202.555 C 146.203 209.536,157.175 205.160,158.404 194.906 C 159.567 185.204,151.713 177.812,143.370 180.756 M224.219 180.443 C 213.166 183.818,212.483 202.055,223.287 205.307 C 231.726 207.846,238.086 202.628,238.086 193.164 C 238.086 184.177,231.569 178.199,224.219 180.443 M151.509 181.675 C 162.126 186.981,158.624 205.975,147.131 205.427 C 140.261 205.099,136.074 200.173,136.396 192.799 C 136.804 183.484,144.213 178.030,151.509 181.675 M231.803 181.796 C 235.902 184.198,238.121 188.761,237.810 194.144 C 236.902 209.821,216.016 208.803,216.016 193.082 C 216.016 183.935,224.772 177.675,231.803 181.796 M191.536 193.751 C 190.212 194.137,187.426 194.637,185.347 194.863 C 179.465 195.503,177.346 197.132,177.344 201.016 C 177.340 211.227,194.843 205.869,195.065 195.591 C 195.126 192.761,195.057 192.725,191.536 193.751 M272.178 193.587 C 271.377 193.877,268.592 194.377,265.989 194.698 C 259.236 195.532,256.500 197.747,257.254 201.768 C 258.999 211.068,275.000 205.488,275.000 195.580 C 275.000 192.662,274.909 192.598,272.178 193.587 M344.762 193.579 C 343.922 193.889,341.636 194.329,339.683 194.556 C 331.291 195.533,328.567 197.887,330.135 202.808 C 332.682 210.801,347.072 204.985,347.373 195.840 C 347.473 192.825,347.273 192.651,344.762 193.579 M194.161 198.362 C 192.021 206.310,177.746 208.656,177.736 201.062 C 177.731 197.555,179.998 195.939,185.838 195.286 C 189.184 194.912,193.690 193.944,194.120 193.507 C 194.536 193.083,194.568 196.849,194.161 198.362 M274.609 195.512 C 274.609 204.901,258.719 210.421,257.932 201.306 C 257.639 197.907,259.554 196.046,263.907 195.501 C 268.584 194.916,272.657 194.178,273.312 193.797 C 274.490 193.112,274.609 193.270,274.609 195.512 M346.973 195.605 C 346.538 201.637,341.526 206.139,335.649 205.778 C 327.867 205.299,328.542 196.390,336.427 195.506 C 340.480 195.052,341.127 194.961,343.287 194.548 C 344.429 194.330,345.659 193.978,346.021 193.767 C 347.087 193.145,347.142 193.252,346.973 195.605 " stroke="none" fill="#fefff0" fill-rule="evenodd"/><path id="path4" d="M165.716 192.578 C 165.716 193.330,165.796 193.638,165.894 193.262 C 165.993 192.886,165.993 192.271,165.894 191.895 C 165.796 191.519,165.716 191.826,165.716 192.578 M136.886 217.188 C 136.886 222.021,136.942 223.999,137.010 221.582 C 137.079 219.165,137.079 215.210,137.010 212.793 C 136.942 210.376,136.886 212.354,136.886 217.188 M216.555 213.086 C 216.556 215.664,216.619 216.668,216.696 215.317 C 216.772 213.966,216.772 211.856,216.694 210.629 C 216.617 209.402,216.555 210.508,216.555 213.086 " stroke="none" fill="#7e7e7a" fill-rule="evenodd"/></g></svg>