<?xml version="1.0" encoding="utf-8"?>
<svg xmlns="http://www.w3.org/2000/svg" viewBox="98.4969 289.563 854.6876 334.3925" width="854.688px" height="334.392px" preserveAspectRatio="none"><g id="object-13" transform="matrix(1, 0, 0, 1, -1.1368683772161603e-13, 0)"><path d="M 232.625 289.563 C 238.004 290.26 242.199 293.199 246 297 C 245.855 302.736 243.949 305.981 240.313 310.188 C 234.022 317.9 229.224 326.215 227 336 C 227.583 336.026 228.165 336.052 228.766 336.078 C 246.668 337.317 261.886 346.174 274 359 C 283.04 369.524 286.87 381.887 290 395.125 C 293.055 407.958 296.993 417.016 305.641 427.172 C 326.989 452.762 335.268 484.036 332.723 517.027 C 329.902 543.921 319.973 568.511 301 588 C 300.23 588.831 299.461 589.663 298.668 590.52 C 284.623 605.291 266.45 614.52 247 620 C 245.389 620.48 245.389 620.48 243.746 620.969 C 224.339 625.826 202.136 624.467 183 619 C 181.896 618.687 181.896 618.687 180.77 618.367 C 150.648 609.47 126.759 588.937 111.75 561.625 C 96.568 532.729 94.976 497.871 104.188 466.875 C 108.535 453.303 115.4 441.558 124.245 430.435 C 134.365 417.685 139.196 405.979 142.891 390.195 C 147.631 370.872 157.016 355.73 174 345 C 184.203 339.369 194.515 336.553 206 335 C 206.184 334.114 206.369 333.229 206.559 332.316 C 209.312 320.556 218.728 291.879 232.625 289.563 Z" fill="#FECE0F" data-index="1" style="opacity: 1;" id="object-1"/><path d="M 232.625 289.563 C 238.004 290.26 242.199 293.199 246 297 C 245.855 302.736 243.949 305.981 240.313 310.188 C 234.022 317.9 229.224 326.215 227 336 C 227.583 336.026 228.165 336.052 228.766 336.078 C 246.668 337.317 261.886 346.174 274 359 C 283.04 369.524 286.87 381.887 290 395.125 C 293.055 407.958 296.993 417.016 305.641 427.172 C 326.989 452.762 335.268 484.036 332.723 517.027 C 329.902 543.921 319.973 568.511 301 588 C 300.23 588.831 299.461 589.663 298.668 590.52 C 284.623 605.291 266.45 614.52 247 620 C 245.389 620.48 245.389 620.48 243.746 620.969 C 224.339 625.826 202.136 624.467 183 619 C 181.896 618.687 181.896 618.687 180.77 618.367 C 150.648 609.47 126.759 588.937 111.75 561.625 C 96.568 532.729 94.976 497.871 104.188 466.875 C 108.535 453.303 115.4 441.558 124.245 430.435 C 134.365 417.685 139.196 405.979 142.891 390.195 C 147.631 370.872 157.016 355.73 174 345 C 184.203 339.369 194.515 336.553 206 335 C 206.184 334.114 206.369 333.229 206.559 332.316 C 209.312 320.556 218.728 291.879 232.625 289.563 Z M 177 378 C 171.373 385.7 169.739 393.785 168 403 C 164.235 420.572 156.763 434.834 144.934 448.363 C 128.42 467.591 124.776 492.501 126.238 516.992 C 128.562 540.701 139.722 561.728 157.648 577.301 C 177.895 592.957 203.656 599.528 228.957 596.531 C 251.656 593.053 271.948 582.891 286.641 564.855 C 302.089 543.769 309.342 516.363 305.629 490.409 C 302.673 474.196 295.886 458.192 284.98 445.684 C 273.06 432.009 266.785 416.568 263 399 C 260.639 388.348 257.553 378.041 248.512 371.086 C 227.134 358.135 194.331 358.544 177 378 Z" fill="#FCA401" data-index="2" style="opacity: 1;" id="object-2"/><path d="M 220 404 C 224.176 406.088 225.399 407.452 227.074 411.77 C 227.755 413.994 228.401 416.23 229.02 418.473 C 233.108 433.182 239.828 445.719 249.849 457.103 C 263.453 472.705 272.218 491.849 271.414 512.871 C 270.308 527.499 263.405 540.627 252.902 550.672 C 238.981 561.839 223.235 564.009 206.023 562.789 C 191.421 560.851 179.077 551.807 170.188 540.438 C 160.96 526.137 159.307 507.918 162.852 491.465 C 166.347 478.13 173.536 467.325 182.559 457.186 C 191.78 446.729 197.296 435.34 200.5 421.813 C 203.193 410.591 207.05 401.787 220 404 Z" fill="#FC9A00" data-index="3" id="object-3"/><path d="M 306.15 499.485 C 309.002 502.337 332.724 499.54 333.064 499.54 C 333.753 532.635 326.728 560.915 303.301 585.637 C 302.542 586.417 301.782 587.196 301 588 C 300.23 588.831 299.461 589.663 298.668 590.52 C 284.623 605.291 266.45 614.52 247 620 C 245.926 620.32 244.852 620.639 243.746 620.969 C 224.339 625.826 202.136 624.467 183 619 C 181.896 618.687 181.896 618.687 180.77 618.367 C 150.645 609.469 126.765 588.936 111.75 561.625 C 102.059 543.246 98.026 531.97 98.626 511.509 C 98.956 511.509 126.076 510.273 126.04 511.647 C 125.774 521.801 137.425 557.238 156 575 C 174.745 591.049 200.743 597.738 225 596 C 249.299 593.122 269.752 583.115 286.063 564.625 C 294.487 550.374 309.64 527.322 306.15 499.485 Z" fill="#FA8F01" data-index="4" style="opacity: 1;" id="object-4"/><path d="M 232.625 289.563 C 238.004 290.26 242.199 293.2 246 297.001 C 245.855 302.736 243.949 305.981 240.313 310.188 C 233.845 318.105 231.522 326.621 227.502 336.001 C 221.232 336.001 212.602 335.03 206.142 335.03 C 206.694 322.515 218.108 291.982 232.625 289.563 Z" fill="#8D4202" data-index="13" style="opacity: 1;" id="object-5"/><path d="M 190 339 C 190 339.66 190 340.32 190 341 C 186.912 342.765 185.767 343 182 343 C 182 342.34 182 341.68 182 341 C 184.906 339.743 186.796 339 190 339 Z" fill="#FB9F12" data-index="54" id="object-6"/><ellipse style="fill: rgb(254, 244, 153); stroke: rgba(0, 0, 0, 0);" cx="239.358" cy="517.657" rx="8.353" ry="8.826" id="object-7"/><ellipse style="fill: rgb(254, 244, 153); stroke: rgba(0, 0, 0, 0); stroke-width: 1;" cx="192.319" cy="519.146" rx="8.353" ry="8.826" id="object-8"/><ellipse style="fill: rgb(254, 244, 153); stroke: rgba(0, 0, 0, 0); stroke-width: 1;" cx="217.796" cy="537.026" rx="8.353" ry="8.826" id="object-9"/><ellipse style="fill: rgb(254, 244, 153); stroke: rgba(0, 0, 0, 0); stroke-width: 1;" cx="196.126" cy="485.754" rx="8.353" ry="8.826" id="object-10"/><ellipse style="fill: rgb(254, 244, 153); stroke: rgba(0, 0, 0, 0); stroke-width: 1;" cx="235.271" cy="486.497" rx="8.353" ry="8.826" id="object-11"/><ellipse style="fill: rgb(254, 244, 153); stroke: rgba(0, 0, 0, 0); stroke-width: 1;" cx="215.709" cy="462.134" rx="8.353" ry="8.826" id="object-12"/><text style="fill: rgb(253, 253, 248); font-family: Arial, sans-serif; font-size: 183.5px; white-space: pre;" id="object-0" x="351.161" y="522.277">papaya</text></g></svg>